<?xml version="1.0" encoding="utf-8"?>
<!-- Generator: Adobe Illustrator 28.6.0, SVG Export Plug-In . SVG Version: 9.03 Build 54939)  -->
<svg version="1.1" id="Capa_1" xmlns="http://www.w3.org/2000/svg" xmlns:xlink="http://www.w3.org/1999/xlink" x="0px" y="0px"
	 viewBox="0 0 1846.6 1202" style="enable-background:new 0 0 1846.6 1202;" xml:space="preserve">
<style type="text/css">
	.st0{clip-path:url(#SVGID_00000006674681609526086790000018123983112264343726_);}
	.st1{fill:#582AFF;}
	.st2{opacity:0.3;clip-path:url(#SVGID_00000006674681609526086790000018123983112264343726_);}
	.st3{fill:url(#SVGID_00000049927568954518627950000005656849197786760080_);}
	.st4{fill:url(#SVGID_00000134956164919870664270000004590308851720341166_);}
	.st5{fill:url(#SVGID_00000127736331516077928330000002860573100504447134_);}
	.st6{fill:url(#SVGID_00000048475292514258559330000010473549191676780718_);}
	.st7{fill:url(#SVGID_00000107548163503270058290000016657215116094559395_);}
	.st8{fill:url(#SVGID_00000039848700999093168040000008227543344755240577_);}
	.st9{fill:url(#SVGID_00000000206973942371366030000005852767409087286197_);}
	.st10{fill:url(#SVGID_00000166640341459805251250000002966816515617281198_);}
	.st11{opacity:0.5;clip-path:url(#SVGID_00000006674681609526086790000018123983112264343726_);}
	.st12{fill:#F2D6FF;}
	
		.st13{opacity:0.4;clip-path:url(#SVGID_00000006674681609526086790000018123983112264343726_);fill:url(#SVGID_00000179646900131040472640000001380847713866323337_);}
	
		.st14{opacity:0.3;clip-path:url(#SVGID_00000006674681609526086790000018123983112264343726_);fill:url(#SVGID_00000016771034082919990740000002278539661486362762_);}
	
		.st15{opacity:0.4;clip-path:url(#SVGID_00000006674681609526086790000018123983112264343726_);fill:url(#SVGID_00000093894311465574385250000006282386437127644572_);}
	
		.st16{opacity:0.2;clip-path:url(#SVGID_00000006674681609526086790000018123983112264343726_);fill:url(#SVGID_00000031187482467838653070000005883160006326398119_);}
	.st17{fill:#F4F4F4;}
	.st18{opacity:0.2;fill:#F2F2F2;}
	.st19{opacity:0.4;fill:#F2F2F2;}
	.st20{fill:#F2F2F2;}
	.st21{opacity:0.2;clip-path:url(#SVGID_00000006674681609526086790000018123983112264343726_);fill:#F2F2F2;}
	.st22{opacity:0.4;clip-path:url(#SVGID_00000006674681609526086790000018123983112264343726_);fill:#F2F2F2;}
	.st23{opacity:0.2;clip-path:url(#SVGID_00000006674681609526086790000018123983112264343726_);fill:#F2D6FF;}
	.st24{opacity:0.4;clip-path:url(#SVGID_00000006674681609526086790000018123983112264343726_);fill:#F2D6FF;}
	
		.st25{clip-path:url(#SVGID_00000006674681609526086790000018123983112264343726_);fill:url(#SVGID_00000091005788833342540420000008533394641350462085_);}
	
		.st26{clip-path:url(#SVGID_00000006674681609526086790000018123983112264343726_);fill:url(#SVGID_00000054224021906112860140000000786713259083934373_);}
	
		.st27{clip-path:url(#SVGID_00000006674681609526086790000018123983112264343726_);fill:url(#SVGID_00000162329622129892558780000002569510040078943653_);}
	
		.st28{clip-path:url(#SVGID_00000006674681609526086790000018123983112264343726_);fill:url(#SVGID_00000149357486980142695650000008186356400941976984_);}
	
		.st29{clip-path:url(#SVGID_00000006674681609526086790000018123983112264343726_);fill:url(#SVGID_00000095338530083063825000000014351974357538566050_);}
	
		.st30{clip-path:url(#SVGID_00000006674681609526086790000018123983112264343726_);fill:url(#SVGID_00000108282641178180216480000007623019374101188993_);}
</style>
<g>
	<defs>
		<path id="SVGID_1_" d="M42.6-7C42.6-7,17,45,16.7,45.4c-47.1,95.1,12.7,217.3,86.1,281.4c68.8,60,161.7,86.6,249.8,101.2
			c140,23.1,144.4-1,296.7,38.6c152.3,39.5,207.1,87.3,247.2,136.4c48.4,59.3,92.5,121.1,120.2,193.1
			c35.6,92.4,53.5,172.4,133.4,239.8c57.1,48.1,125.8,80.6,196,106c167.2,60.6,326.2,60.2,500.6,60.2V608c0,0-30.5,11.6-31.2,11.8
			c-48.7,18.5-99.7,28.5-149.9,9c-142.1-55.2-151.5-252.7-238.9-359.2c-129.8-158-332-146.2-516.2-169.4
			c-46.6-5.9-93.4-15.9-136-36.1c-33.3-15.7-52.8-39.3-81.2-60.6L42.6-7z"/>
	</defs>
	<clipPath id="SVGID_00000050631716726082040660000018118082431773549207_">
		<use xlink:href="#SVGID_1_"  style="overflow:visible;"/>
	</clipPath>
	<g style="clip-path:url(#SVGID_00000050631716726082040660000018118082431773549207_);">
		<path class="st1" d="M42.6-7C42.6-7,17,45,16.7,45.4c-47.1,95.1,12.7,217.3,86.1,281.4c68.8,60,161.7,86.6,249.8,101.2
			c140,23.1,144.4-1,296.7,38.6c152.3,39.5,207.1,87.3,247.2,136.4c48.4,59.3,92.5,121.1,120.2,193.1
			c35.6,92.4,53.5,172.4,133.4,239.8c57.1,48.1,125.8,80.6,196,106c167.2,60.6,326.2,60.2,500.6,60.2V608c0,0-30.5,11.6-31.2,11.8
			c-48.7,18.5-99.7,28.5-149.9,9c-142.1-55.2-151.5-252.7-238.9-359.2c-129.8-158-332-146.2-516.2-169.4
			c-46.6-5.9-93.4-15.9-136-36.1c-33.3-15.7-52.8-39.3-81.2-60.6L42.6-7z"/>
	</g>
	<g style="opacity:0.3;clip-path:url(#SVGID_00000050631716726082040660000018118082431773549207_);">
		
			<linearGradient id="SVGID_00000143600491788534957350000008704224820385256121_" gradientUnits="userSpaceOnUse" x1="680.5042" y1="863.9148" x2="1624.0593" y2="-45.6187" gradientTransform="matrix(0.572 0.8203 -0.8203 0.572 789.2345 -640.2496)">
			<stop  offset="0" style="stop-color:#06DCC2"/>
			<stop  offset="1" style="stop-color:#275EFF"/>
		</linearGradient>
		<path style="fill:url(#SVGID_00000143600491788534957350000008704224820385256121_);" d="M1753.3,1046.6
			c55.5-51.8,86.6-111.2,92.5-176.5c7-78.5-30.3-154.4-66.4-227.8c-15.2-30.9-30.9-62.8-42.6-93.8c-21.1-56-31.6-114.4-41.8-170.9
			c-13.5-75.2-27.6-153-66.8-224.5c-9.9-18.1-21.1-37.7-35.6-58.8c-62.9-91.7-203-122.8-312.1-69.2c-79.9,39.2-200.6,89-325.5,68.3
			c-26.8-4.4-56.8-14.2-87.6-28.1c-1.5-1.1-3-2.3-4.5-3.4c-8.7-6.7-17.5-13.4-26.7-19.9c-11-9-22.2-18.1-34.1-26.5
			C791.7,6.5,781-2.3,769.6-10.4c-9.8-8.6-19.9-16.9-30.8-24.6c-9.4-8.5-19.2-16.6-29.8-24.1c-9.3-8.5-19.1-16.7-29.7-24.1
			c-9.2-8.5-18.9-16.5-29.3-23.9c-21.1-19.6-44.8-37-74.4-48.2c-66.2-25.1-133.4-24.5-199.7,1.8c-53.5,21.2-106.7,59.1-158,112.6
			c-11.2,11.7-20.1,21.3-28,30.2c-24.5,27.7-41.2,51.4-52.7,74.5c-14.4,29-20.4,57-18.3,85.6c4.9,53.1,33.7,122.6,78.4,177.1
			c19.1,23.3,41.1,43.8,65.3,59.2c97.3,61.7,213.9,77.8,326.6,93.4c87.4,12.1,177.7,24.6,258.9,58.2
			c81.1,33.4,149.6,86.7,203.6,158.5c42.9,57,75.7,124.2,97.4,199.8c3.9,13.6,7.8,26.3,11.9,38.7c34.3,104.5,80.7,180.6,137.9,226.1
			c33.5,26.7,79.5,37.5,136.5,31.9c47.1-4.6,93.3-20.6,128.4-34C1642.1,1128.5,1705.8,1090.8,1753.3,1046.6z M1286,43.3
			c49.9-23,107.6-28.8,162.3-16.3c55.5,12.6,101.9,42.9,130.8,85c13.7,20,24.4,38.7,33.9,56c37.5,68.2,51.2,142.5,64.5,214.3
			c9.9,53.7,20.2,109.3,40.3,162.7c11.1,29.6,26,60,40.4,89.4c34.2,70,69.6,142.5,63.4,217.1c-5.2,61.6-34.1,117.9-86.1,167.3
			c-43.5,41.3-103,78-177,108.9c-37.2,15.6-81.3,32-126.2,35.9c-54,4.7-99.9-7.2-132.9-34.6c-54.9-45.6-97.9-117.5-131.7-219.7
			c-3.9-12-7.8-24.2-11.6-37.5c-21.6-74-54.1-139.3-96.4-194.1c-52.9-68.5-120.4-119.8-200.5-152.5c-77.8-32-163.9-44.4-247.2-56.4
			c-108.1-15.6-219.9-31.7-313-91c-76.9-49-130.8-152.7-138.4-224.7c-1.7-27.1,4.5-53.5,18.9-80.8c11.4-21.5,27.8-43.6,51.9-69.4
			c7.8-8.4,16.5-17.3,27.4-28.1c113.3-112.6,229-147.9,343.7-105.1c17.1,6.4,32.2,14.8,46,24.6c3.3,3.1,6.6,6.2,9.8,9.4
			c-8.5-4.7-17.5-8.9-27.2-12.4c-110.7-40.6-223.3-8-334.7,96.8c-10.7,10-19.2,18.3-26.9,26.1c-24.1,24.5-40,44.6-51.6,65
			c-14.8,26.2-21.4,51.7-19.9,77.9c5.8,47.8,32.9,110.3,73.5,159.8c18,22,38.7,41.4,61.3,55.9c89.9,57.4,197.6,73.7,301.8,89.4
			c78.7,11.9,160.1,24.2,233.7,54.1c78.8,32,144.6,80.9,195.7,145.3c41.4,52.3,73.3,115.3,94.7,187.2c3.9,13.1,7.6,25,11.4,36.5
			c32.9,99.2,74.3,169.5,126.6,214.9c33.7,29.2,79.6,42.5,132.7,38.4c44.2-3.4,86.4-20.4,125.4-38.2
			c71.2-32.5,125.5-67.4,165.9-106.7c49.1-47.7,76.3-101.7,80.8-160.4c5.6-71.6-28.1-140.9-60.7-208c-13.5-27.9-27.6-56.7-38.1-84.8
			c-19-50.5-29-103.1-38.7-153.9c-13.1-68.7-26.6-139.7-62.6-205.1c-9.1-16.5-19.3-34.4-32.4-53.5
			c-56.2-82.2-179.2-112.7-279.9-69.5c-74.1,31.7-185.8,71.7-300.6,53.5c-29.9-4.7-64-16-98.4-32.3c28.5,12.2,56.2,20.8,81.1,24.8
			c51.5,8.4,104.8,6,163.1-7.3C1180.7,86.6,1230.2,69,1286,43.3z M800.7,16.7c3.5,3,6.9,5.9,10.3,8.9c-1.4-0.8-2.7-1.6-4.1-2.3
			c-3.8-3.4-7.5-6.7-11.2-10.1C797.4,14.4,799,15.6,800.7,16.7z M1294.8,76.5c45.4-17.8,96.8-20.9,144.7-8.9
			c49.2,12.4,90.5,40,116.4,77.8c12.3,18,22,35,30.7,50.7c34.3,62.1,47.5,129.7,60.4,195c9.4,48.1,19.2,97.8,37.2,145.6
			c10,26.6,23.2,53.9,35.9,80.3c30.7,63.7,62.4,129.6,57.7,197.3c-7,100.2-79.5,181.2-228.1,255.1c-25.8,12.8-73.9,36.7-123.1,40
			c-50.3,3.4-96.1-11.1-129.1-41c-49.2-44.6-88.6-112.8-120.4-208.5c-3.6-10.9-7.3-22.5-11.2-35.3c-21.3-70.2-52.8-131.2-93.7-181.4
			c-0.3-0.4-0.6-0.8-1-1.2c-49.6-60.6-114.1-107-191.6-138.2c-70.1-28.2-147.1-40.3-221.6-52.1c-99.7-15.8-202.7-32.1-288.5-87.1
			C299.9,320,249,225.8,240,160.7c-1.1-24.6,5.6-48.5,20.5-73.1c11.4-18.8,27.1-37.3,50.7-59.9c7.5-7.1,15.8-14.7,26.3-24
			c108-95.9,215.9-125.3,320.8-87.6c7.2,2.6,14.1,5.6,20.7,8.9c3.3,3.5,6.5,7,9.7,10.5c1.3,1.4,2.7,2.9,4,4.3
			c-1.9-0.7-3.8-1.5-5.7-2.1c-56.1-19.8-113.8-20.4-171.5-2c-45.9,14.7-93,42-140.2,81.2c-10.3,8.5-18.5,15.4-25.8,21.9
			C333.8,53,313.8,72,299.1,94.4c-15.1,23.1-22.4,46.7-21.6,70.2c6.6,42,30.8,97,67.5,141.8c17,20.7,36.6,39.2,58.3,53.2
			c82.6,53.1,181.5,69.6,277.2,85.5c70,11.6,142.3,23.6,208.3,49.9c76.6,30.4,139.7,74.9,187.7,132.2c39.9,47.7,71,106.4,92,174.5
			c4,13,7.5,23.9,11,34.2c31,92.8,68.8,159.4,115.3,203.6c33.5,31.8,79.2,47.7,128.9,44.8c45.6-2.6,87.1-23.2,122.5-42.4
			c94.6-51.1,204.1-125.3,211.6-245.9c4.1-64.7-25.9-127.6-55-188.3c-11.9-24.9-24.2-50.6-33.6-75.6
			c-16.9-44.9-26.4-91.6-35.5-136.8c-12.6-62.2-25.7-126.6-58.5-185.9c-8.2-14.9-17.5-31-29.2-48.1c-24.6-36-63.8-62.7-110.4-75
			c-45-11.9-93.8-10.1-137.3,5.2c-74.4,26.2-173,54.2-275.8,38.7c-32-4.8-68.9-17-105.6-34.6c30.9,13.5,61.3,23,88.3,27.1
			C1114.2,139.6,1217.2,106.9,1294.8,76.5z M739.8-26.3c5,5.1,10.1,10.1,15.3,15.2c-2.2-0.9-4.5-1.8-6.8-2.7
			c-5.8-5.4-11.3-11-16.8-16.6C734.3-29.1,737.1-27.7,739.8-26.3z M819.4,32.9c5.2,4.5,10.4,8.9,15.8,13.3c-0.3-0.2-0.6-0.3-1-0.5
			c-0.9-0.7-1.8-1.3-2.7-2c-5.9-4.4-11.5-9.1-17.1-13.9C816.1,30.9,817.7,31.9,819.4,32.9z M714.3-37.2c6.3,6.4,12.7,12.7,19.4,18.6
			C644.6-45,553-23.9,454,45.9c-8.9,6.3-16.9,11.9-24.7,17.8c-16.2,12.2-34.8,27.3-49.3,46c-8,10.3-14.4,21.5-18.5,33.3
			c-4.3,12.8-6.1,24.7-2.8,37.8c2.9,11.7,6.8,23.2,11.4,34.4c10.3,25,24,49.1,40.9,71.4c2.3,3.1,4.7,6.1,7.2,9.1
			c16.1,19.6,34.8,37.3,55.5,50.8c75.4,49,165.7,65.6,253.1,81.7c61.1,11.3,124.3,22.9,182.4,45.5c74.7,29,135.1,69,179.8,119
			c38.6,43.2,68.6,97.7,89.3,161.9c3.1,9.5,6.7,20.6,10.5,32c18.8,55.5,49.9,135.8,104,192.4c33.4,34.9,77.8,53.1,125.1,51.2
			c43.8-1.7,83.3-23.4,119.5-46.5c89-57,172.1-123.7,176.5-224.6c2.6-57.9-23.8-114.3-49.3-168.7c-10.2-21.8-20.8-44.4-29.1-66.4
			c-14.8-39.3-23.7-80-32.3-119.4c-12.2-55.8-24.8-113.6-54.4-166.9c-7.4-13.3-15.7-27.6-26-42.8c-42.8-62.9-131.4-91.7-215.5-70.1
			c-73.6,18.9-161.1,36.6-251.1,23.9c-36.1-5-77.2-18.6-117.5-38.5c34.7,15.8,69.2,26.7,100.2,31.1c97.5,14.2,192.6-9.3,264.5-31.4
			c82.2-25.2,172.5-0.8,220.7,58c2.9,3.6,5.7,7.3,8.3,11.1c11,16.1,19.7,31.3,27.5,45.3c31.1,56.1,43.9,117,56.3,175.9
			c8.9,42.3,18.1,86.1,34,128.4c8.9,23.6,20.3,47.8,31.4,71.2c27.2,57.4,55.3,116.8,52,177.7c-3.3,61.4-28.8,137.2-193.1,233.8
			c-34.4,20.2-74.8,42-119.9,44.1c-47.7,2.3-92.2-14.5-125.2-47.4c-44-43.8-78.7-106.5-109.2-197.3c-3.3-9.8-6.7-20.3-10.7-33.1
			c-21-66.4-51.6-123.2-91-168.8C1038,554.9,975.9,512.5,900,482.7c-62.3-24.5-130.2-36.4-195.9-47.8
			c-91.3-16-185.6-32.5-264.2-83.2c-21.2-13.7-39.1-30.9-54.4-49.3c-16-19.1-29.4-39.9-40.4-61.4c-10-19.6-18.2-40.1-23.3-61
			c-1.6-6.4-2.7-12.6-2.3-19.2c0.4-6.5,1.5-13,3.2-19.4c3.7-13.5,10.3-26.4,18.7-38.3c14.4-20.2,33.1-36.8,49.5-50.4
			c8.5-7,17.1-13.6,25.2-19.8C520.5-47.4,618-70.4,714-37.4C714.1-37.3,714.2-37.3,714.3-37.2z M782.5,13.8
			c4.5,3.7,9.2,7.3,13.9,10.9c-5.6-3.9-11-7.9-16.2-11.8C781,13.2,781.7,13.5,782.5,13.8C782.4,13.8,782.5,13.8,782.5,13.8z
			 M784.7,20.9c5.5,3.7,11,7.3,16.6,10.8c-1-0.3-2.1-0.7-3.1-1c-109-33.9-203.7,8.9-265.5,44.1l-1.4,0.8
			c-7.3,4.2-14.9,8.5-22.2,12.9c-16.7,10.1-34,21.5-48.2,36.4c-7.8,8.2-14.3,17.4-18.7,27.3c-2.1,4.7-3.7,9.6-4.7,14.6
			c-1.3,6.3-2,11.4-0.2,17.7c1.8,6.4,3.9,12.8,6.3,19.1c4.9,13,10.9,25.6,17.9,37.9c8.4,14.9,18.2,29.2,29.3,42.8
			c16.1,19.7,34.4,36.8,53.3,49.2c68.5,45,150.6,62,230,78.4c51.9,10.7,105.6,21.9,155.5,40.7c74.1,27.9,130.3,62.5,171.8,105.8
			c37.1,38.8,66.3,88.9,86.6,149.2l3.5,10.4c2.2,6.4,4.3,12.9,6.6,19.4c16.5,48.3,46,118.9,92.7,181c27.8,37,73.2,58.6,121.3,57.7
			c45.2-0.8,84.3-26.1,116.6-50.7c70.5-53.8,139.6-113.7,141.4-203.4c1.1-51.2-21.7-101.1-43.7-149.3c-8.5-18.7-17.4-38.1-24.5-56.9
			c-12.6-33.5-20.9-68.2-28.9-101.7c-11.8-49.6-24-100.8-50.6-148.2c-6.5-11.6-13.8-24.2-22.8-37.5
			c-43.8-64.7-126.1-78.3-183.2-70.4c-63.8,8.8-143.2,19.8-226.3,9.1c-38.7-4.9-83.1-19-124.8-39.6c-3.9-1.9-7.8-3.9-11.7-6
			c40.5,19.8,82.5,33.3,119.3,38.2c86.9,11.7,169.2-2.4,239.5-16.6c61.8-12.5,142,1.3,188.7,58.3c2.9,3.5,5.7,7.2,8.3,11.1
			c9.6,14.2,17.4,27.6,24.3,40c27.9,50.1,40.3,104.5,52.3,157c8.3,36.5,16.9,74.3,30.7,110.9c7.7,20.5,17.4,41.5,26.8,61.8
			c23.7,51.2,48.1,104.1,46.3,158.3c-3.2,96.6-79.9,158-158.2,212.6c-34.8,24.3-73.1,47-116.8,48.2c-45.6,1.3-88.7-17.8-121.4-53.8
			c-49.2-54.1-78.2-127.9-98-186.1c-3.4-10-6.6-19.8-9.8-29.3l-0.5-1.5c-20.6-62.5-50.4-115-88.4-156.2
			c-43-46.6-102.5-84.6-176.6-113c-54.3-20.8-112.8-32.2-169.5-43.2c-83.1-16.2-169.1-33-240.6-79.7c-21.5-14.1-39.4-31.8-54.7-50.7
			c-15.7-19.4-28.7-40.3-39.1-62.1c-4-8.4-7.6-17-10.7-25.7c-2.3-6.5-5.1-13-6.4-19.7c-1.2-6.2-0.5-12.6,0.8-18.7
			c2.6-13.3,8.9-25.8,17.4-37.1c1.6-2.1,3.2-4.1,4.9-6.1c14.2-16.7,32.4-30,48.4-40.9c7.9-5.4,16.1-10.6,24-15.7
			C594-1.7,680.6-18.7,767.1,8.3C772.8,12.6,778.6,16.8,784.7,20.9z M1316.8,159.7c56.5-7.8,137.8,5.7,181,69.5
			c9,13.2,16.2,25.8,22.7,37.4c26.4,47.2,38.6,98.3,50.4,147.8c8,33.6,16.3,68.3,29,101.9c7.1,18.9,16,38.3,24.5,57
			c21.9,48.1,44.6,97.8,43.5,148.6c-1.8,88.9-70.5,148.5-140.7,202c-32,24.4-70.7,49.4-115.2,50.3c-47.3,0.9-92-20.3-119.4-56.9
			c-46.6-61.9-76-132.4-92.4-180.6c-2.2-6.5-4.4-13-6.6-19.4l-3.5-10.4c-20.5-60.5-49.7-110.9-87-149.9
			c-41.7-43.5-98.2-78.3-172.6-106.4c-50.1-18.9-103.9-30-155.8-40.8c-79.2-16.4-161.1-33.4-229.2-78.1
			c-22.1-14.6-40.5-33.1-56-52.8c-17-21.4-30.9-44.7-40.9-69.1c-2.2-5.4-4.2-10.8-6.1-16.2c-1.9-5.7-4.5-11.1-4.1-17.1
			c0.4-6,1.6-12,3.5-17.8c4.1-12.1,11.5-23.2,20.8-33c14-14.8,31.2-26.1,47.8-36.1c7.2-4.4,14.8-8.7,22.1-12.9l1.4-0.8
			c61.4-35,155.5-77.5,263.5-43.9c3.8,1.2,7.6,2.5,11.2,3.9c6.6,4,13.2,7.9,19.9,11.6c3.9,2.3,7.9,4.6,11.8,6.8
			c4.6,2.8,9.3,5.5,13.9,8.1c4.2,2.6,8.4,5.1,12.7,7.5c2.1,1.3,4.2,2.6,6.4,3.9c-14.5-8-30-15.2-47.3-20.3
			c-44.2-13.2-88.7-15.3-136.1-6.4c-37,6.9-74.4,20.2-117.8,41.7l-2.8,1.4c-6.7,3.3-13.6,6.7-20.2,10.2c-19,10-34.4,19.2-47.6,31.7
			c-7.2,6.8-13.4,14.4-17.9,22.8c-6.2,11.4-9.8,22.7-5.8,35.1c4.2,13,9.7,25.7,16.2,38c9.2,17.6,20.4,34.5,33.4,50.3
			c15.8,19.2,33.6,36,51.9,48.2c65.2,43.1,143.4,60.4,219.1,77c47.1,10.4,95.8,21.1,141.4,38c74.5,27.6,127.8,59.1,167.8,99.3
			c36.4,36.5,65.1,84.6,85.3,142.9c2.3,6.6,4.6,13.3,6.9,20.1l2.9,8.6c16,46.5,44.1,114.7,87,175.4c27.2,38.6,71.9,61.4,119.4,61
			c46.4-0.4,85.9-28.4,115.1-52.8c65-54.3,123.4-109.8,123.8-192.7c0.3-47.9-20.6-94.6-40.9-139.8c-7.7-17.1-15.6-34.8-22.1-52.1
			c-11.5-30.6-19.4-62.2-27.1-92.7c-11.7-46.5-23.7-94.6-48.7-139.1c-6.1-10.8-12.9-22.5-21.2-34.8
			c-38.9-57.7-111.8-74.3-167.1-70.6c-6.7,0.4-13.5,0.9-20.3,1.4c-58.5,4.1-124.7,8.7-193.6,0.3c-37.4-4.5-79.8-17-119.3-35.3
			c-12.3-5.7-24.9-12.1-37.5-19.1c-0.1-0.1-0.2-0.1-0.4-0.2c4.8,2.6,9.6,5,14.4,7.4c42,20.7,86.6,34.9,125.6,39.8
			C1173.3,179.6,1252.9,168.5,1316.8,159.7z M1321.2,176.3c54.6-3.7,126.6,12.7,165,69.7c8.3,12.3,15.1,23.9,21.1,34.7
			c24.9,44.3,36.9,92.3,48.6,138.7c7.7,30.6,15.6,62.2,27.1,92.8c6.5,17.3,14.5,35,22.2,52.2c20.2,45,41.1,91.6,40.8,139.1
			c-0.5,82.2-58.5,137.4-123.2,191.4c-28.9,24.1-68,51.9-113.6,52.3c-46.7,0.4-90.6-22.1-117.5-60.1c-42.8-60.5-70.8-128.6-86.8-175
			l-2.9-8.6c-2.3-6.8-4.6-13.5-6.9-20.1c-20.3-58.5-49.1-106.8-85.7-143.6c-40.2-40.4-93.8-72.1-168.6-99.8
			c-45.8-16.9-94.6-27.7-141.7-38.1c-75.5-16.6-153.5-33.8-218.3-76.7c-22.4-14.9-40.9-34-56.5-54.1c-16.9-21.8-30.7-45.5-40.3-70.3
			c-2.4-6.3-6.4-13.5-5.8-20.2c0.6-6.4,2.1-12.8,4.7-18.8c4.3-10.1,11.2-19.4,19.5-27.4c0.3-0.3,0.6-0.5,0.8-0.8
			c13-12.3,28.3-21.4,47.2-31.3c6.6-3.5,13.5-6.9,20.1-10.2l2.8-1.4C697.8,29,776.8,41.1,825.4,55.6c33.3,10,59.9,27.3,85.6,44.1
			c12.3,8,24.9,16.3,38.2,23.7c12.6,7,25.3,13.5,37.6,19.2c39.8,18.4,82.4,31,120,35.5c69.1,8.4,135.5,3.8,194.1-0.3
			C1307.7,177.2,1314.5,176.8,1321.2,176.3z M780.5,15.6c-2.6-1.8-5.1-3.6-7.6-5.3c0.4,0.1,0.8,0.3,1.3,0.4
			C776.2,12.3,778.3,14,780.5,15.6z M768.2,6.8c-9.3-6.9-18.1-13.8-26.3-20.8c1.8,0.6,3.5,1.2,5.2,1.8c3.8,3.6,7.7,7,11.6,10.4
			c3.5,3,7.2,6,11,9C769.2,7,768.7,6.9,768.2,6.8z M762.7,5.1c-85.5-25-171.3-7.3-269.3,55.3c-7.9,5.1-16.1,10.3-24.1,15.7
			c-16,10.9-34.4,24.3-48.8,41.2c-8,9.3-14.5,19.6-18.7,30.6c-2.3,6.1-4.4,12.3-5.2,18.7c-0.8,6.2,0.3,11.8,1.9,17.7
			c3.2,11.7,7.4,23.1,12.4,34.4c11,24.9,25.6,48.9,43.4,70.8c0.3,0.3,0.5,0.7,0.8,1c15.7,19.1,33.8,36.4,53.8,49.5
			c71.9,46.9,158.1,63.8,241.4,80c56.5,11,115,22.4,169.1,43.1c73.8,28.2,133,66,175.8,112.4c37.9,41,67.4,93.3,88,155.6l0.5,1.5
			c3.2,9.6,6.4,19.4,9.8,29.4c19.8,58.4,48.9,132.3,98.4,186.7c33.1,36.4,76.9,55.8,123.1,54.5c44.3-1.3,82.9-24.1,118.1-48.6
			c78.7-54.9,155.7-116.6,158.9-214c1.8-54.6-22.7-107.6-46.5-159c-9.4-20.3-19.1-41.3-26.8-61.7c-13.7-36.4-22.3-74.2-30.6-110.6
			c-12-52.7-24.4-107.2-52.5-157.5c-7-12.5-14.8-25.9-24.4-40.2c-45.5-67.1-133-83.6-199.4-70.3c-70.1,14.1-152.2,28.2-238.7,16.5
			c-38.7-5.1-83.2-19.8-125.6-41.5c37.3,17.5,75,29.4,108.4,34c90.4,12.7,178.1-5,252-24c78.1-20.1,160.2,3.9,204.9,58.4
			c2.9,3.5,5.6,7.1,8.1,10.9c10.3,15.1,18.5,29.5,25.9,42.7c29.5,53.1,42.1,110.7,54.3,166.4c8.6,39.5,17.5,80.3,32.4,119.7
			c8.3,22,18.9,44.6,29.1,66.5c25.4,54.3,51.7,110.4,49.1,168c-2,46.4-20.6,88.5-56.6,128.7c-34.1,38-79.3,69.1-119,94.5
			c-35.9,23-75.1,44.5-118.3,46.2c-46.6,1.8-90.4-16.2-123.3-50.6c-53.8-56.2-84.9-136.3-103.6-191.7c-3.8-11.4-7.4-22.5-10.5-32
			c-20.8-64.4-51-119.1-89.7-162.5c-44.8-50.2-105.6-90.5-180.6-119.6c-58.3-22.6-121.6-34.3-182.8-45.6
			c-87.2-16.1-177.3-32.7-252.3-81.4c-21.3-13.9-39.3-31.3-54.6-49.9c-15.8-19.2-29-39.9-39.6-61.5c-9.5-19.3-17.8-39.8-21.6-60.6
			c-1.8-10,1.7-22,5.1-31.5c4-11,10.1-21.4,17.5-30.9c14.4-18.5,32.8-33.5,48.9-45.6c7.8-5.8,15.7-11.5,24.6-17.8
			c99.8-70.4,192-91,281.7-62.9C745-8.7,753.6-1.8,762.7,5.1z M824.6,40.8c-5.8-4.2-11.5-8.4-16.9-12.7c-2.5-2-4.9-4.1-7.4-6.1
			c1.8,0.9,3.5,1.8,5.2,2.8C811.7,30.3,818.1,35.6,824.6,40.8z M806.3,29.5c1.3,1,2.6,2,3.9,3c-7.3-5.2-14.3-10.5-21.1-15.9
			c1.4,0.6,2.7,1.2,4,1.9C797.4,22.2,801.8,25.9,806.3,29.5z M783.7,12.3c-6.6-5.5-13-11.3-19.2-17.2c2.4,1.2,4.8,2.4,7.2,3.6
			c5.5,5.2,11.1,10.4,16.8,15.6C786.9,13.6,785.3,12.9,783.7,12.3z M778.3,10.2c-1-0.4-2-0.7-3-1.1C770.1,5.1,765,1,760.2-3.1
			c-2.7-2.3-5.3-4.7-8-7.1c2.2,0.9,4.4,1.8,6.6,2.8C765.1-1.4,771.6,4.5,778.3,10.2z M743.8-15.4c-0.4-0.1-0.8-0.3-1.2-0.4
			c-1.4-0.5-2.9-0.9-4.3-1.4c-0.6-0.5-1.3-1.1-1.8-1.6c-6.1-5.4-12-11.1-17.7-16.9c2.7,1,5.3,2,7.9,3.1
			C732.2-26.7,738-21,743.8-15.4z M715.6-38.7c-5.3-5.4-10.5-10.9-15.6-16.4c3,1.3,6,2.7,9,4.2c1.5,1.6,3,3.1,4.5,4.7
			c3.3,3.4,6.5,6.9,9.8,10.3C720.8-36.9,718.2-37.8,715.6-38.7z M711.4-40.1c-95.7-31.6-192.8-8.2-296.7,71.6
			c-7.7,5.9-16.7,12.9-25.2,19.9c-16.5,13.7-35.4,30.4-49.9,50.7c-7.9,11.1-14.2,23-18,35.6c-4,13-5.7,25.4-2.8,38.7
			c2.5,11.3,6,22.5,10.2,33.5c9.4,24.7,22.1,48.6,37.6,71c4.9,7,10,13.9,15.5,20.6c16.5,20.1,35.5,38.1,56.5,51.7
			c79,51,173.6,67.6,265.1,83.6c65.6,11.5,133.4,23.3,195.4,47.7c75.6,29.7,137.4,71.9,183.7,125.6c39.3,45.5,69.8,102.1,90.7,168.2
			c4,12.8,7.5,23.3,10.8,33.1c30.6,91.1,65.5,154,109.7,198c33.5,33.3,78.6,50.4,127,48c45.7-2.2,86.4-24.1,121-44.4
			c92.6-54.5,188.1-125.1,194.1-235.3c3.3-61.3-24.9-120.9-52.1-178.5c-11.1-23.4-22.5-47.5-31.3-71
			c-15.9-42.1-25.1-85.8-33.9-128.1c-12.4-59-25.2-120.1-56.4-176.3c-7.8-14.1-16.6-29.3-27.6-45.5c-46-67.6-143.5-97-231.6-70
			c-71.7,22-166.5,45.5-263.4,31.3c-34.6-5-73.8-18-112.7-37.1c33.3,15,66.4,25.4,95.4,29.7c103.4,15.6,202.3-12.6,277-38.8
			c43.1-15.2,91.4-17,135.9-5.2c40.9,10.9,76.1,32.9,100.5,62.6c3.1,3.7,6,7.6,8.7,11.6c11.7,17.1,20.9,33.2,29.1,48
			c32.7,59.1,45.7,123.3,58.3,185.4c9.2,45.2,18.7,92,35.6,137c9.4,25.1,21.8,50.8,33.7,75.8c28.9,60.6,58.9,123.2,54.8,187.5
			c-7.5,119.8-116.5,193.6-210.6,244.4c-35.1,19-76.4,39.5-121.5,42.1c-49,2.8-94.1-12.9-127.1-44.2
			c-46.3-44-83.9-110.3-114.8-202.9c-3.5-10.4-6.9-21.2-11-34.2c-21.1-68.3-52.2-127.2-92.4-175.1
			c-48.2-57.5-111.6-102.2-188.6-132.8c-66.2-26.3-138.7-38.4-208.8-50c-95.4-15.9-194.1-32.3-276.3-85.1
			c-20.9-13.5-38.7-30.2-54.1-48.3c-16-18.8-29.5-39.1-40.7-60.2c-10.5-19.8-19.1-40.3-25-61.4c-2-7-3.6-14.2-4.8-21.3
			c-1.1-6.5-0.5-13.2,0.4-19.6c1.9-13.9,6.6-27.4,13.4-40.1c2.2-4.1,4.5-8,7.1-11.9c14.5-22.2,34.4-41.1,50.1-55.1
			c7.3-6.5,15.5-13.4,25.7-21.9c46.9-39,93.9-66.2,139.4-80.8c57.1-18.3,114.3-17.6,169.9,1.9c3.2,1.1,6.3,2.3,9.4,3.6
			C700.7-51.4,706-45.7,711.4-40.1z M836.8,44.9c2.9,2.4,5.8,4.8,8.8,7.1c-0.1,0-0.1-0.1-0.2-0.1c-4-3.2-8-6.4-12-9.6
			c0.5,0.3,0.9,0.7,1.4,1C835.5,43.8,836.2,44.4,836.8,44.9z M787.4,8.4c4.1,3.7,8.2,7.5,12.3,11.2c-1.7-0.9-3.5-1.7-5.3-2.6
			c-5.4-4.7-10.7-9.6-15.9-14.5c2.4,1.4,4.7,2.8,7,4.2C786.2,7.3,786.8,7.8,787.4,8.4z M773-2.7c-2.9-2.8-5.9-5.6-8.7-8.4
			c-0.7-0.7-1.5-1.4-2.2-2.1c2,1.4,4.1,2.7,6,4.1c3.6,3.1,7.1,6.3,10.6,9.5C776.8-0.6,774.9-1.7,773-2.7z M762.7-9.9
			c1.4,1.4,2.8,2.7,4.3,4.1c-2.2-1.1-4.5-2.1-6.8-3.2c-4.9-4.7-9.7-9.4-14.4-14.2c2.6,1.5,5.2,3,7.8,4.5
			C756.6-15.7,759.7-12.8,762.7-9.9z M741.2-27.7c-0.4-0.4-0.9-0.9-1.3-1.3c-3-3-6-6-9-9c2.2,1.4,4.4,2.9,6.5,4.4
			c3.4,3.1,6.8,6.2,10.1,9.3C745.4-25.5,743.3-26.6,741.2-27.7z M735.7-30.5c-2.5-1.2-5.1-2.4-7.7-3.5c-4.3-4.5-8.6-8.9-12.8-13.3
			c-0.2-0.2-0.4-0.4-0.6-0.7c2.9,1.6,5.7,3.2,8.5,4.9C727.3-38.9,731.5-34.7,735.7-30.5z M710.4-52.3c-3.3-3.5-6.6-6.9-10-10.4
			c2.4,1.6,4.8,3.2,7.2,4.9c3.3,3,6.6,6.1,9.8,9.2C715.1-49.8,712.8-51.1,710.4-52.3z M705.3-54.8c-2.7-1.3-5.5-2.5-8.3-3.7
			c-2.2-2.4-4.4-4.8-6.6-7.1c-2-2.2-4.1-4.5-6.2-6.7c3,1.6,6,3.3,8.9,5.1C697.2-63.1,701.2-58.9,705.3-54.8z M680.4-76.4
			c-3.3-3.5-6.6-7-9.9-10.5c2.5,1.6,5,3.3,7.4,5c3.3,3.1,6.6,6.2,9.9,9.4C685.3-73.9,682.9-75.1,680.4-76.4z M675.4-78.9
			c-5.2-2.4-10.6-4.7-16.2-6.7C553.3-123.6,444.6-94,336,2.5c-10.5,9.3-18.9,16.9-26.3,24c-23.8,22.7-39.5,41.3-51,60.2
			c-15.1,24.8-21.9,49-20.8,74c6.2,45.1,32.4,104.1,71,151.1c17.5,21.3,37.5,40.2,59.4,54.2c86.2,55.3,189.5,71.6,289.4,87.4
			c74.4,11.8,151.2,23.9,221.1,52c77.2,31,141.3,77.3,190.7,137.6c0.3,0.4,0.6,0.8,1,1.2c40.7,50,72.1,110.9,93.4,180.9
			c3.9,12.8,7.6,24.4,11.2,35.3c31.9,96,71.5,164.4,120.9,209.3c33.4,30.3,79.8,45,130.8,41.6c49.7-3.4,98-27.4,124-40.3
			c93.9-46.7,219.9-124,229.2-256.5c4.8-68.2-27-134.2-57.8-198.1c-12.7-26.4-25.9-53.7-35.9-80.2c-18-47.7-27.7-97.3-37.1-145.4
			c-12.8-65.5-26.1-133.2-60.5-195.5c-8.7-15.7-18.4-32.7-30.8-50.8c-26.1-38.2-67.9-66.2-117.6-78.7c-48.4-12.2-100.4-9-146.2,9
			c-77.3,30.3-179.9,62.9-288.2,46.1c-30.7-4.7-65.8-16.3-101.1-33c29.4,12.7,58.1,21.5,83.8,25.6c55.3,8.8,146.8,12.8,302-53.7
			c99.8-42.7,221.5-12.4,277.1,68.8c13,19,23.2,36.9,32.3,53.3c35.9,65.1,49.4,136.1,62.4,204.6c9.7,50.9,19.7,103.6,38.8,154.2
			c10.6,28.1,24.6,57,38.2,84.9c32.5,66.9,66,136,60.5,207.2c-4.5,58.3-31.5,112-80.3,159.3c-40.3,39.2-94.4,73.9-165.3,106.3
			c-38.8,17.7-80.8,34.6-124.6,38c-52.5,4.1-97.8-9-131-37.8c-52.1-45.2-93.3-115.2-126.1-214.1c-3.8-11.4-7.5-23.3-11.4-36.4
			c-21.5-72.1-53.4-135.2-95-187.7c-51.3-64.7-117.4-113.9-196.5-146c-73.9-30-155.4-42.3-234.3-54.2
			c-103.9-15.7-211.4-31.9-300.9-89.1c-73.2-46.8-125.6-145.8-134-214.4c-1.4-25.8,5.1-51,19.7-77c11.5-20.3,27.3-40.2,51.3-64.6
			c7.6-7.8,16.2-16,26.8-26c110.7-104.2,222.4-136.6,332.3-96.4c11.9,4.3,22.8,9.7,33,15.8C667.5-87.2,671.5-83,675.4-78.9z
			 M787.1,5.4C787.1,5.4,787,5.3,787.1,5.4c-0.2-0.1-0.2-0.2-0.3-0.2C786.9,5.2,787,5.3,787.1,5.4z M756-19.4
			c-0.3-0.2-0.7-0.4-1-0.6c-0.6-0.5-1.1-1.1-1.7-1.6C754.2-20.9,755.1-20.1,756-19.4z M726.1-43.4c-0.6-0.3-1.1-0.7-1.7-1
			c-0.7-0.7-1.5-1.5-2.2-2.2C723.6-45.6,724.8-44.5,726.1-43.4z M696.8-67.3c-0.7-0.5-1.5-0.9-2.3-1.4c-1-1-1.9-1.9-2.9-2.9
			C693.4-70.1,695.1-68.7,696.8-67.3z M667.5-91c-0.9-0.5-1.7-1.1-2.6-1.6c-1-1-2.1-2.1-3.1-3.1C663.8-94.2,665.7-92.6,667.5-91z
			 M1563,1156.8c-34.9,13.4-81,29.3-127.7,33.9c-56.4,5.5-101.7-5.1-134.8-31.4c-56.8-45.4-103.1-121.2-137.3-225.3
			c-4.1-12.4-7.9-25-11.9-38.6c-21.8-75.8-54.7-143.2-97.7-200.4c-54.2-72-123.1-125.6-204.5-159.1c-81.5-33.7-172-46.2-259.5-58.3
			c-112.5-15.5-228.8-31.6-325.7-93.1c-35.9-22.8-70.5-60.5-97.4-106c-25.3-42.9-41.9-89.9-45.5-129c-2-28.3,3.9-56,18.2-84.7
			c11.4-23,28.1-46.6,52.4-74.1c7.9-8.9,16.8-18.5,28-30.2c51.2-53.4,104.1-91.1,157.3-112.1c65.7-26,132.3-26.6,197.9-1.8
			c24.8,9.4,45.5,23.2,63.9,39c-10.8-6.7-22.5-12.6-35.2-17.4c-115.7-43.2-232.2-7.6-346.2,105.6c-10.9,10.8-19.6,19.7-27.5,28.1
			c-24.1,26-40.7,48.1-52.1,69.8c-14.6,27.6-20.9,54.3-19.1,81.7c5.4,50.5,33.3,116.4,76,168.5c18.5,22.6,39.9,42.6,63.3,57.5
			c93.5,59.5,205.6,75.7,313.9,91.3c83.1,12,169.1,24.4,246.6,56.2c79.8,32.6,147,83.7,199.7,151.9c42.2,54.6,74.5,119.7,96.1,193.5
			c3.9,13.3,7.7,25.6,11.7,37.6c33.8,102.5,77.1,174.7,132.2,220.5c33.4,27.8,80,39.9,134.6,35.1c45.3-4,89.6-20.5,126.9-36.1
			c74.2-31.1,134-67.8,177.7-109.4c52.3-49.7,81.4-106.4,86.6-168.4c6.3-75-29.2-147.6-63.5-217.9c-14.4-29.4-29.2-59.8-40.3-89.3
			c-20.1-53.2-30.3-108.7-40.3-162.4c-13.3-71.9-27.1-146.3-64.7-214.8c-9.5-17.3-20.2-36.1-34-56.1
			c-29.2-42.6-76.1-73.1-132.1-85.9c-55.3-12.6-113.5-6.7-163.9,16.5c-77,35.5-193.1,80.4-313.1,60.9c-28.5-4.6-60.7-15.3-93.6-30.5
			c26.8,11.2,52.7,19.2,76.3,23.1c53.5,8.9,108.9,6.1,169.3-8.7c48-11.7,99.6-31.3,157.6-59.8c108.1-53.1,246.8-22.3,309.2,68.6
			c14.4,21,25.6,40.6,35.5,58.6c39.1,71.3,53.1,148.9,66.6,224c10.2,56.6,20.7,115,41.9,171.2c11.7,31.1,27.4,63,42.6,94
			c36,73.2,73.3,148.9,66.3,226.9c-5.8,64.9-36.7,124-91.9,175.4C1704.5,1089.4,1641,1126.9,1563,1156.8z"/>
		
			<linearGradient id="SVGID_00000051347768537148798300000004535433225831400370_" gradientUnits="userSpaceOnUse" x1="654.2791" y1="831.8928" x2="1597.0917" y2="-76.9249" gradientTransform="matrix(0.572 0.8203 -0.8203 0.572 789.2345 -640.2496)">
			<stop  offset="0" style="stop-color:#C544AD"/>
			<stop  offset="1" style="stop-color:#275EFF"/>
		</linearGradient>
		<path style="fill:url(#SVGID_00000051347768537148798300000004535433225831400370_);" d="M1124,185.5c-36.2-4-76.6-15-113.8-31
			c-11.7-5-23.5-10.6-36.1-17c-12.8-6.5-25.2-13.9-37.2-20.9c-25.1-14.9-51.1-30.2-83-39.3c-94.5-26.9-179.1,0-242.3,26.5l-3.8,1.6
			c-6.2,2.6-12.5,5.2-18.6,7.9c-15.2,6.7-32.6,14.9-47.1,26.9c-7.1,5.9-13.2,12.6-17.9,20.1c-2.7,4.4-4.9,9.1-6.4,14
			c-1.8,5.8-3.2,11-1.1,16.9c2.3,6.5,4.8,12.9,7.6,19.2c5.8,13,12.8,25.6,20.8,37.7c5.6,8.5,11.6,16.7,18.2,24.7
			c15.5,18.9,33.1,35.5,51.2,47.6c62,41.4,136.6,58.9,208.8,75.9c42.1,9.9,85.7,20.2,126.7,35.1c75,27.2,125.5,55.8,163.9,92.7
			c35.7,34.4,63.9,80.3,83.9,136.6c3.2,9,6.4,18.2,9.6,27.6c22.5,64.9,50.6,123.6,81.4,169.7c26.8,40.1,70.7,64.1,117.4,64.2
			c48.3,0.1,88-31.3,113.6-54.9c54.2-49.9,107.1-105.1,106.2-182.1c-0.5-44.6-19.6-88.2-38.2-130.4c-6.8-15.5-13.9-31.5-19.7-47.1
			c-10.4-27.6-17.9-55.9-25.2-83.3c-11.5-43.5-23.5-88.5-47-130.2c-5.7-10-11.9-20.8-19.6-32.2c-29.1-43.2-85.5-69.7-150.9-70.7
			c-17.1-0.3-34.2-0.2-52.3-0.1C1225.8,191.2,1176.7,191.5,1124,185.5z M1325.5,192.9c64.6,1,120.4,27.1,149.1,69.8
			c7.7,11.4,13.9,22.1,19.6,32.1c23.4,41.5,35.3,86.4,46.8,129.9c7.3,27.5,14.8,55.9,25.2,83.5c5.9,15.6,12.9,31.6,19.8,47.1
			c18.5,42,37.6,85.5,38.1,129.7c0.9,76.4-49.5,129.1-105.7,180.8c-25.4,23.4-64.6,54.4-112.1,54.3c-46,0-89.2-23.7-115.6-63.3
			c-30.7-46-58.8-104.6-81.2-169.4c-3.2-9.3-6.4-18.5-9.6-27.6c-20.1-56.5-48.5-102.7-84.4-137.2c-38.6-37.1-89.3-65.8-164.6-93.2
			c-41.2-14.9-84.8-25.2-127-35.1c-71.9-16.9-146.3-34.4-208-75.6c-22.7-15.2-41.4-34.7-57.1-55.2c-16.8-22-30.4-45.9-39.3-71
			c-1.9-5.5-1.8-9.7-0.4-15.3c1.3-5.1,3.4-10.1,6.1-14.8c4.6-7.9,10.9-14.9,18.3-21.1c14.3-11.8,31.5-19.9,46.6-26.6
			c6.1-2.7,12.4-5.4,18.6-7.9l3.8-1.6c62.8-26.3,147-53.1,240.7-26.4c31.6,9,57.4,24.3,82.4,39.1c12,7.1,24.4,14.5,37.3,21
			c12.6,6.4,24.5,12,36.2,17.1c37.4,16.1,78.1,27.2,114.5,31.2c52.8,6,102,5.8,149.6,5.6C1291.4,192.8,1308.5,192.7,1325.5,192.9z"
			/>
		
			<linearGradient id="SVGID_00000114773023525860666100000000243778830517459095_" gradientUnits="userSpaceOnUse" x1="651.6132" y1="828.3812" x2="1594.114" y2="-80.1361" gradientTransform="matrix(0.572 0.8203 -0.8203 0.572 789.2345 -640.2496)">
			<stop  offset="0" style="stop-color:#C544AD"/>
			<stop  offset="1" style="stop-color:#275EFF"/>
		</linearGradient>
		<path style="fill:url(#SVGID_00000114773023525860666100000000243778830517459095_);" d="M997.8,153.1
			c-12.5-5.7-24.6-12.1-36.3-18.3c-24.4-12.9-49.7-26.2-79.8-34.3c-39-10.5-78.9-13.2-121.9-8.3c-32.9,3.8-67.5,12-108.8,26
			l-4.5,1.5c-5.8,2-11.6,3.9-17.3,5.9c-15.7,5.6-32.3,11.9-46.5,22.1c-7.1,5.1-13.4,11.2-18.1,18c-6.8,9.8-11.7,20.4-7,31.6
			c5.5,13.1,11.8,25.9,19.4,38.3c6.6,10.7,13.9,21,22,30.9c15.3,18.6,32.7,35,50.8,47.3c59.2,39.8,130.5,57.8,199.5,75.2
			c36.8,9.3,74.9,18.9,111,31.7c53.4,18.9,114.1,44,159.9,86.1c35,32.1,62.7,76,82.6,130.2c3.5,9.4,6.8,19.1,9.4,26.4
			c17.8,51,39.9,114.4,75.8,164.2c39.7,55,84.7,67,115.5,67.4c37.5,0.4,74.2-18.2,112.2-57c46.1-47.2,91-99.2,88.7-171.4
			c-1.3-41.4-18.7-82-35.6-121.2c-5.9-13.7-12-28-17.2-41.8c-9.2-24.4-16.2-49.4-23.1-73.6c-11.5-40.7-23.3-82.8-45.5-121.8
			c-5-8.7-11-19-18-29.5c-36.5-54.4-106.4-67.7-134.7-70.8c-29.5-3.3-59.1-4.7-90.4-6.3c-31.6-1.6-64.3-3.2-98.9-6.8
			c-35.1-3.6-73.6-13.1-108.3-26.8C1021.6,163.6,1010.2,158.7,997.8,153.1z M1140.6,196.5c34.6,3.6,67.4,5.3,99.1,6.8
			c31.3,1.5,60.8,3,90.2,6.3c28,3.1,97.1,16.1,133.1,69.9c7,10.4,13,20.7,18,29.4c22.1,38.8,33.9,80.8,45.3,121.4
			c6.8,24.2,13.9,49.3,23.1,73.8c5.2,13.9,11.3,28.1,17.3,41.9c16.8,39.1,34.2,79.5,35.4,120.6c2.3,71.6-42.3,123.3-88.2,170.2
			c-37.5,38.3-73.7,56.8-110.5,56.4c-54.8-0.6-92.1-36.5-113.7-66.5c-35.7-49.6-57.8-112.9-75.6-163.7c-2.6-7.4-5.9-17-9.4-26.5
			c-19.9-54.5-47.9-98.6-83.1-130.9c-46.1-42.4-107.1-67.5-160.6-86.5c-36.3-12.9-74.4-22.5-111.2-31.8
			C781,369.9,709.9,351.9,651,312.3c-23.2-15.7-42.3-35.7-58.2-56.9c-7.8-10.4-14.8-21.3-21-32.5c-3-5.6-5.9-11.2-8.5-16.9
			c-2.5-5.6-6.7-11.5-5.9-17.6c0.7-6,2.9-11.9,6-17.3c4.8-8.4,11.9-15.8,20.3-21.8c0.1,0,0.1-0.1,0.2-0.1c14-10.1,30.4-16.3,46-21.9
			c5.7-2,11.5-4,17.3-5.9l4.5-1.5c64.8-21.8,142.6-41,229.3-17.7c29.8,8,55,21.3,79.3,34.1c11.8,6.2,23.9,12.6,36.4,18.4
			c12.5,5.7,23.9,10.6,34.9,14.9C1066.6,183.3,1105.3,192.9,1140.6,196.5z"/>
		
			<linearGradient id="SVGID_00000121238555235561830870000012117396690197799615_" gradientUnits="userSpaceOnUse" x1="648.9042" y1="824.969" x2="1591.1493" y2="-83.3017" gradientTransform="matrix(0.572 0.8203 -0.8203 0.572 789.2345 -640.2496)">
			<stop  offset="0" style="stop-color:#C544AD"/>
			<stop  offset="1" style="stop-color:#275EFF"/>
		</linearGradient>
		<path style="fill:url(#SVGID_00000121238555235561830870000012117396690197799615_);" d="M909.5,123.7
			c-80.7-20.3-156.1-6.9-219.1,8.9l-5.8,1.5c-5.2,1.3-10.4,2.6-15.5,3.9c-16.2,4.3-32,8.8-46,17.4c-8.5,5.2-15.8,11.8-21,19.5
			c-3,4.5-5.7,9.2-6.8,14.3c-1.3,5.8,1.4,10.4,3.9,15.7c6.1,13,13.5,25.6,21.9,37.7c4.1,5.9,8.5,11.7,13.1,17.3
			c15.2,18.5,32.6,34.9,50.7,47.3c56.8,38.7,125.5,57.2,192,75.2c30.9,8.4,62.9,17,93.6,27.6c52.1,18,111.4,40.5,155.9,79.5
			c34.2,30,61.6,71.7,81.2,123.9c2.8,7.4,5.8,15.7,9.2,25.3l2.9,8.4c18.1,51.7,36.9,105.2,67.2,150.2
			c40.6,60.2,88.6,70.1,113.6,70.6c48.1,1,86.7-31.6,110.7-59.1c39.1-44.9,74.7-95.5,71.1-160.8c-2.1-38.4-17.8-76-33.1-112.5
			c-5-11.9-10.1-24.2-14.6-36.1c-7.9-21-14.4-42.4-20.6-63.2c-11.5-38.1-23.3-77.5-44.3-114c-4.5-7.9-10-17.3-16.4-26.9
			c-28.7-43-80.3-62.3-118.5-70.9c-42.1-9.5-84.1-12.8-128.6-16.4c-15.6-1.2-31.8-2.5-48.4-4.1c-34.8-3.2-70.3-11-102.8-22.5
			c-10.2-3.6-21.2-7.8-33.4-12.7c-12.1-4.9-24-10.4-35.5-15.7C962.4,142.1,937.8,130.8,909.5,123.7z M1020.6,170.3
			c12.3,5,23.2,9.2,33.5,12.8c32.7,11.5,68.4,19.4,103.4,22.6c16.7,1.6,32.8,2.9,48.5,4.1c44.4,3.5,86.3,6.9,128.2,16.3
			c37.8,8.5,88.9,27.6,117.2,70.1c6.4,9.5,11.9,18.9,16.4,26.8c20.8,36.4,32.7,75.7,44.1,113.7c6.3,20.8,12.7,42.3,20.7,63.3
			c4.5,12,9.7,24.3,14.6,36.2c15.2,36.3,30.9,73.8,33,111.9c3.6,64.8-31.9,115-70.7,159.6c-23.7,27.2-61.8,59.4-108.9,58.4
			c-24.6-0.5-71.8-10.3-111.8-69.7c-30.2-44.8-48.9-98.1-67-149.8l-2.9-8.4c-3.4-9.6-6.4-17.9-9.2-25.4
			c-19.8-52.5-47.3-94.4-81.7-124.6c-44.8-39.3-104.4-61.9-156.6-80c-30.7-10.6-62.8-19.3-93.7-27.7
			c-66.2-17.9-134.7-36.5-191.3-74.9c-23.2-15.9-42.5-36-58.4-57.3c-6.7-9.1-12.9-18.5-18.3-28.1c-2.7-4.8-5.3-9.7-7.6-14.6
			c-2.1-4.3-5.4-8.7-4.7-13.6c0.6-4.4,2.5-8.9,4.7-13c5-9,13-16.6,22.5-22.4c13.8-8.4,29.3-12.9,45.4-17.1
			c5.1-1.3,10.3-2.6,15.5-3.9l5.8-1.5c62.8-15.7,137.7-29.1,217.9-8.9c28.1,7.1,52.5,18.3,76.1,29.2
			C996.6,159.9,1008.5,165.4,1020.6,170.3z"/>
		
			<linearGradient id="SVGID_00000003818452049899453720000005431342563910378927_" gradientUnits="userSpaceOnUse" x1="646.3109" y1="821.5203" x2="1588.1149" y2="-86.3251" gradientTransform="matrix(0.572 0.8203 -0.8203 0.572 789.2345 -640.2496)">
			<stop  offset="0" style="stop-color:#C544AD"/>
			<stop  offset="1" style="stop-color:#275EFF"/>
		</linearGradient>
		<path style="fill:url(#SVGID_00000003818452049899453720000005431342563910378927_);" d="M723.4,148c-4.8,0.8-9.6,1.5-14.3,2.3
			c-16.7,2.8-31.6,5.7-45.5,12.6c-8.2,4.1-15.5,9.6-20.8,16.3c-4.2,5.3-10.6,15.1-7.4,21.5c8.9,18.3,20.1,35.8,33.5,52
			c15.2,18.6,32.8,35.1,51.2,47.9c55.3,38.1,122.6,57.6,187.6,76.5c24,7,48.9,14.2,72.9,22.3c58.9,19.8,111,39,151.9,73
			c34,28.2,60.1,66.7,79.9,117.6c2.9,7.4,5.8,15.3,8.9,24.2c2.5,7.1,5,14.2,7.5,21.3c15.7,44.9,31.9,91.4,57,131.6
			c39.1,62.4,86.8,73.1,111.7,73.8c18.4,0.6,65.9-4.3,109.2-61.3c27.8-36.5,58.9-86.5,53.5-150.2c-3-35.6-17.2-70.7-30.9-104.6
			c-3.9-9.7-8-19.8-11.7-29.6c-6.4-17.1-12.1-34.5-17.6-51.4c-11.7-35.9-23.7-73.1-43.7-107.7c-4.1-7.1-9.1-15.5-14.8-24.2
			c-19.7-29.8-53.2-53-102.3-71c-50.3-18.5-98-22.4-153.2-27l-11.6-1c-34.8-2.8-67.5-9-97.3-18.2c-9.6-3-19.8-6.3-32.1-10.6
			c-11.8-4.1-23.4-8.6-34.6-13c-23-9-46.8-18.2-73.3-24.4c-73.9-17.2-143.4-10.1-207.5,0.1L723.4,148z M936.8,148.6
			c26.3,6.1,50,15.4,73,24.3c11.3,4.4,22.9,8.9,34.7,13c12.3,4.3,22.6,7.7,32.1,10.7c30,9.3,62.9,15.5,97.8,18.3l11.6,1
			c55,4.6,102.5,8.5,152.5,26.8c48.6,17.9,81.8,40.8,101.3,70.2c5.8,8.7,10.7,17.1,14.8,24.1c19.8,34.4,31.9,71.5,43.5,107.3
			c5.5,16.9,11.2,34.3,17.6,51.5c3.7,9.8,7.8,19.9,11.7,29.6c13.7,33.8,27.8,68.7,30.8,104.1c5.4,63.1-25.6,112.8-53.2,149
			c-42.8,56.2-89.3,61-107.4,60.4c-24.4-0.8-71.2-11.2-109.9-72.9c-25.1-40-41.2-86.4-56.9-131.2c-2.5-7.1-5-14.2-7.5-21.3
			c-3.2-8.9-6.1-16.9-9-24.2c-19.9-51.2-46.2-89.9-80.4-118.3c-41.2-34.2-93.5-53.5-152.6-73.3c-24.1-8.1-49-15.3-73-22.3
			c-64.9-18.8-131.9-38.3-186.9-76.2c-23.4-16.2-43-36.4-59-58.1c-5.4-7.3-10.4-14.7-15-22.4c-2.3-3.8-4.4-7.7-6.5-11.6
			c-2.1-4-5-7.6-3.8-12.2c1.1-4.1,2.8-8,5.2-11.7c5.2-7.9,13.2-14.2,22.3-18.8c13.6-6.8,28.3-9.6,44.8-12.4
			c4.7-0.8,9.5-1.5,14.3-2.3l6.4-1C794.1,138.6,863.3,131.6,936.8,148.6z"/>
		
			<linearGradient id="SVGID_00000067220623555882418550000011573697864206555823_" gradientUnits="userSpaceOnUse" x1="643.7619" y1="818.0661" x2="1584.9475" y2="-89.1833" gradientTransform="matrix(0.572 0.8203 -0.8203 0.572 789.2345 -640.2496)">
			<stop  offset="0" style="stop-color:#C544AD"/>
			<stop  offset="1" style="stop-color:#275EFF"/>
		</linearGradient>
		<path style="fill:url(#SVGID_00000067220623555882418550000011573697864206555823_);" d="M674.3,202.4c0,0.1,0,0.2,0.1,0.3
			c0.3,1.1,0.9,2.2,1.5,3.2c8,13.4,16.5,26.4,26.6,38.7c15.5,19,33.7,36.1,52.8,49.5c55.8,39,124.3,60.2,190.6,80.6
			c14.8,4.6,30.1,9.3,45,14.1l4.9,1.6c50.7,16.4,103.1,33.4,143.1,64.8c33.3,26.1,59,62.5,78.5,111.3c2.9,7.1,5.7,14.7,8.7,23.1
			c3.9,10.9,7.7,22,11.4,32.8c13.2,38.7,26.8,78.8,47.5,114.4c16.1,27.8,51.8,74.7,109.8,77c47.9,1.9,87.1-31.5,107.8-63.4
			c30-46.2,41.7-91.8,36-139.5c-4-33.6-16.9-66.7-29.4-98.8c-2.7-7-5.4-14-8.1-20.9c-4.5-12.1-8.8-24.3-13-36.2
			c-12.3-34.9-25-71.1-44.6-104.7c-3.4-5.8-8-13.6-13.3-21.5c-21.6-32.9-55.7-54.4-86.1-71.1c-51.5-28.2-100.5-31.7-152.4-35.4
			c-35.9-2.5-65-6.9-91.8-13.9c-11.4-3-22.4-6.1-30.7-8.5c-11.4-3.3-22.8-6.9-33.8-10.3c-22.3-7-45.3-14.3-70-19.4
			c-70.8-14.8-138.2-12.2-195.9-8.6l-7.2,0.4c-4.3,0.3-8.7,0.5-13,0.8c-17.1,1.1-31.2,2.4-44.9,7.8c-7.9,3.1-15.1,7.6-20.5,13.3
			c-2.6,2.7-4.8,5.7-6.4,8.9C675.9,195.4,673.7,199.4,674.3,202.4z M705.1,172.2c13.4-5.2,27.3-6.5,44.2-7.6c4.3-0.3,8.6-0.6,13-0.8
			l7.2-0.4c57.5-3.6,124.7-6.1,195.2,8.6c24.6,5.1,47.6,12.4,69.8,19.4c11,3.5,22.4,7.1,33.9,10.3c8.3,2.4,19.4,5.5,30.8,8.5
			c26.9,7.1,56.2,11.5,92.3,14c51.6,3.7,100.4,7.1,151.5,35.1c30.2,16.6,64,37.9,85.4,70.5c5.2,7.9,9.8,15.6,13.2,21.4
			c19.5,33.5,32.2,69.6,44.4,104.4c4.2,11.9,8.5,24.1,13,36.2c2.6,6.9,5.3,13.9,8.1,20.9c12.5,32,25.3,65,29.3,98.4
			c5.7,47.3-6,92.6-35.7,138.4c-20.4,31.4-58.9,64.3-105.8,62.4c-56.9-2.3-92.1-48.6-108-76c-20.6-35.5-34.2-75.4-47.3-114.1
			c-3.7-10.8-7.5-22-11.4-32.8c-3-8.4-5.9-16-8.7-23.1c-19.7-49.1-45.5-85.7-79.1-112c-40.3-31.6-92.9-48.7-143.8-65.2l-4.9-1.6
			c-14.9-4.8-30.2-9.6-45-14.1c-66.1-20.4-134.5-41.5-189.9-80.3c-23.6-16.6-43.5-36.9-59.9-58.7c-4.3-5.8-8.4-11.7-12.2-17.7
			c-1.9-2.9-3.7-5.9-5.4-8.9c-2.3-4-3.1-6.3-1.4-10.6c1.3-3.5,3.3-6.8,5.8-9.8C689,180.5,696.6,175.5,705.1,172.2z"/>
		
			<linearGradient id="SVGID_00000008834333539590996210000014291789725621814661_" gradientUnits="userSpaceOnUse" x1="637.89" y1="810.9312" x2="1578.1521" y2="-95.4279" gradientTransform="matrix(0.572 0.8203 -0.8203 0.572 789.2345 -640.2496)">
			<stop  offset="0" style="stop-color:#C544AD"/>
			<stop  offset="1" style="stop-color:#275EFF"/>
		</linearGradient>
		<path style="fill:url(#SVGID_00000008834333539590996210000014291789725621814661_);" d="M713.9,206.1c0.3,1.1,1,2.2,1.7,3.2
			c5.7,8.7,11.8,17.2,18.5,25.3c16.2,19.8,35.5,38,56.3,52.8c62.4,44.5,141.1,69.1,210.6,90.7c5.4,1.7,10.7,3.3,16.1,5
			c45,13.8,91.5,28.1,127.9,54.8c32.6,24,57.8,58.3,77.2,104.9c2.9,6.9,5.7,14.1,8.5,22c5.1,14.1,9.8,28.6,14.4,42.6
			c10.9,33.2,22.1,67.6,38.8,99c12.3,23.1,47.4,77.2,107.9,80.3c48.1,2.4,88-31.2,106.3-65.5c20.2-38,26.4-81.3,18.4-128.9
			c-5.8-34.6-18.7-68.8-31.1-102l-4.2-11.1c-14.4-38.4-29.3-78.1-51-114.9c-4.3-7.2-8-13.2-11.7-18.9
			c-18.6-28.6-44.6-51.1-69.9-71.1c-44.2-35-86-39.9-140.2-42.9c-28.8-1.6-57-3.5-86.3-9.7c-10-2.1-20-4.3-29.4-6.4
			c-11.1-2.5-22.2-5.1-33-7.6c-21.5-5.1-43.8-10.3-66.8-14.5c-64.5-11.9-128.9-15.2-184.2-17.4c-6.5-0.3-13.1-0.6-19.6-0.8
			c-14-0.5-29.8-1.1-44.4,3c-7.8,2.2-15,5.9-20.7,11c-2.6,2.3-4.9,5-6.7,7.8c-1.6,2.5-4.3,6-3.5,9
			C713.9,206,713.9,206.1,713.9,206.1z M745.5,179.9c14.2-4,29.1-3.5,43.6-2.9c6.5,0.3,13.1,0.5,19.6,0.8
			c55.2,2.2,119.6,5.5,183.9,17.4c22.9,4.1,45.1,9.4,66.7,14.5c10.8,2.5,21.9,5.2,33,7.6c9.4,2.1,19.4,4.3,29.4,6.4
			c29.5,6.2,57.8,8.1,86.7,9.7c53.8,3,95.2,7.8,138.8,42.4c25.1,19.9,50.9,42.3,69.5,70.7c3.7,5.6,7.3,11.6,11.6,18.8
			c21.6,36.7,36.5,76.3,50.9,114.6l4.2,11.1c12.4,33,25.3,67.2,31.1,101.7c7.9,47.2,1.8,90.2-18.2,127.9
			c-18,33.8-57.2,66.8-104.2,64.4c-59.3-3-93.9-56.4-106-79.2c-16.6-31.3-27.8-65.6-38.7-98.7c-4.6-14-9.3-28.6-14.4-42.7
			c-2.8-7.9-5.6-15.1-8.5-22c-19.5-46.9-44.9-81.5-77.8-105.7c-36.6-26.9-83.3-41.3-128.5-55.2c-5.4-1.7-10.8-3.3-16.1-5
			c-69.3-21.6-147.8-46-209.9-90.4c-24.2-17.3-45.1-38-62.3-60.5c-4.4-5.8-8.4-11.7-12.4-17.6c-0.4-0.6-0.8-1.3-1-2
			c-0.7-2.8,2.3-7.1,3.9-9.5c2-2.8,4.5-5.3,7.3-7.5C732.5,184.9,738.8,181.8,745.5,179.9z"/>
		
			<linearGradient id="SVGID_00000142177571382239260810000001857086249612884150_" gradientUnits="userSpaceOnUse" x1="631.5707" y1="803.2601" x2="1570.9554" y2="-102.2534" gradientTransform="matrix(0.572 0.8203 -0.8203 0.572 789.2345 -640.2496)">
			<stop  offset="0" style="stop-color:#C544AD"/>
			<stop  offset="1" style="stop-color:#275EFF"/>
		</linearGradient>
		<path style="fill:url(#SVGID_00000142177571382239260810000001857086249612884150_);" d="M753.5,209.9c0,0,0,0.1,0,0.1
			c0.2,0.7,0.7,1.4,1.2,2c2.8,3.7,5.7,7.3,8.6,10.9c51.2,62.4,134.5,111,247.9,144.7c8,2.4,16.1,4.7,24.3,7
			c40.5,11.5,82.4,23.4,115.8,46.2c36.8,25.3,63.5,63.2,84.1,119.4c6.1,16.7,11.4,33.8,16.5,50.5c8.7,28.4,17.7,57.8,31.1,85.5
			c34.7,71.7,85.7,82.3,105.9,83.5c22.3,1.3,44.5-5.1,64.3-18.6c18.3-12.5,32.7-29.9,40.5-49.1c15.8-38.6,9.3-81.4,0.8-118.2
			c-25.1-109.6-72.7-204.7-141.3-282.7c-42.1-47.8-88.4-49.3-142-50.9c-21.3-0.7-43.2-1.3-66.7-4.9
			c-70.9-10.8-141.9-21.5-212.8-32.3l-102.5-15.5c-13.7-2.1-29.1-4.4-43.8-1.8c-7.3,1.3-14.3,4.1-20,8.1c-3,2.1-5.7,4.5-7.8,7.3
			C756,203.1,752.8,207.4,753.5,209.9z M785.8,187.5c14.3-2.6,29.5-0.2,43,1.8l102.5,15.5c70.9,10.8,141.9,21.5,212.8,32.3
			c23.6,3.6,45.7,4.3,67,4.9c53,1.6,98.8,3.1,140.3,50.2c68.4,77.7,115.9,172.6,140.9,281.9c8.4,36.6,14.8,79.1-0.8,117.3
			c-19,46.5-66,68.6-102.7,66.4c-19.9-1.2-69.9-11.6-104.1-82.4c-13.3-27.5-22.3-56.9-31-85.2c-5.1-16.6-10.4-33.8-16.5-50.5
			c-20.7-56.6-47.6-94.8-84.7-120.3c-33.6-23.1-75.7-35-116.4-46.6c-8.1-2.3-16.2-4.6-24.2-7c-28.8-8.5-57-18.4-84.2-30.1
			c-24.7-10.6-48.6-22.6-71.1-36.3c-20.7-12.7-40.1-26.8-57.7-42.5c-15.8-14.1-29.2-29.4-42-45.5c-3.8-4.8,4.9-12.7,8.9-15.7
			C771.4,191.7,778.5,188.9,785.8,187.5z"/>
	</g>
	<g style="opacity:0.5;clip-path:url(#SVGID_00000050631716726082040660000018118082431773549207_);">
		<path class="st12" d="M1204.9,205.7l-52.6,48l-0.2,0.2l-0.2,0.2l-22.3,20.3c2.1-0.2,4.1-0.5,6.2-0.8l18.9-17.3l0.2-0.2l52.4-47.8
			l0.2-0.2l17.4-15.9c0.4-1.9,0.7-3.8,0.9-5.6l-20.8,19L1204.9,205.7z"/>
		<path class="st12" d="M1213.9,213.6l-0.2,0.2l-0.2,0.2l-52.4,47.8l-0.2,0.2l-8.5,7.8c2.9-0.9,5.8-2,8.7-3.1l2.3-2.1l0.2-0.2
			l0.2-0.2l52.6-48l0.2-0.2l0.8-0.8c1.3-2.6,2.4-5.2,3.4-7.9L1213.9,213.6L1213.9,213.6z"/>
		<path class="st12" d="M1039.1,103.9c-3.2,2.9-6.1,6-8.8,9.1l18.8-17.2C1045.7,98.4,1042.3,101,1039.1,103.9z"/>
		<path class="st12" d="M1040.6,151.8L1093,104l0.2-0.2l31.7-28.9c-1.7-0.1-3.3-0.2-5-0.2l-29.1,26.6l-0.2,0.2l-52.6,48l-0.2,0.2
			l-0.2,0.2l-30.6,27.9c0,1.5,0.1,3.1,0.3,4.6l33.2-30.3L1040.6,151.8z"/>
		<path class="st12" d="M1023,135.7l52.4-47.8l0.2-0.2l9.9-9.1c-2.7,0.7-5.4,1.6-8,2.5l-4.3,4l-0.2,0.2l-52.6,48l-0.2,0.2l-0.2,0.2
			l-5.8,5.3c-1,2.4-2,4.9-2.8,7.3l11.4-10.4L1023,135.7z"/>
		<path class="st12" d="M1058.2,167.8l52.4-47.8l0.2-0.2l0.2-0.2l43-39.2c-1.3-0.4-2.6-0.8-4-1.2l-41.7,38l-0.2,0.2l-0.2,0.2
			l-52.4,47.8l-0.2,0.2l-0.2,0.2l-43.1,39.3c0.4,1.2,0.9,2.4,1.3,3.6L1058,168L1058.2,167.8z"/>
		<path class="st12" d="M1137.4,240L1137.4,240l52.4-47.8l0.2-0.2l35.5-32.4c-0.2-1.4-0.5-2.7-0.8-4.1l-37.1,33.9l-0.2,0.2
			l-52.8,48.1l-0.2,0.2v0l-38.6,35.2c1.5,0.3,3,0.5,4.5,0.7l36.9-33.7L1137.4,240z"/>
		<path class="st12" d="M1119.8,224l52.4-47.8l0,0l0.2-0.2l45.2-41.2c-0.5-1.1-1.1-2.2-1.6-3.3l-46,42v0l-0.2,0.2l-52.8,48.1
			l-0.2,0.2l-47.4,43.3c1.2,0.5,2.4,1,3.6,1.5l46.6-42.6L1119.8,224z"/>
		<path class="st12" d="M1049.2,160l0.2-0.2l52.6-48l0.2-0.2l38.1-34.8c-1.5-0.3-2.9-0.6-4.4-0.8l-36.3,33.1l0,0l-0.2,0.2l-0.2,0.2
			l-52.4,47.8l-0.2,0.2l-38,34.6c0.3,1.3,0.5,2.7,0.9,4l39.6-36.1L1049.2,160z"/>
		<path class="st12" d="M1031.6,143.9l0.2-0.2l52.4-47.8l0.2-0.2l0.2-0.2l22.6-20.6c-2,0.2-4,0.4-5.9,0.6L1082,93.2l-0.2,0.2
			l-0.2,0.2l-52.4,47.8l-0.2,0.2l-21,19.1c-0.3,1.8-0.5,3.6-0.7,5.4l24.1-22L1031.6,143.9z"/>
		<path class="st12" d="M1084.4,192.1l52.8-48.1l0.2-0.2v0l50.1-45.7c-1-0.7-1.9-1.5-2.9-2.2l-50,45.6l-0.2,0.2l0,0l-52.4,47.8
			l-0.2,0.2l-51.4,46.9c0.8,0.9,1.6,1.8,2.4,2.7l51.5-47L1084.4,192.1z"/>
		<path class="st12" d="M1066.6,176.2l0.2-0.2l52.8-48.1l0.2-0.2l46.5-42.4c-1.2-0.5-2.4-1.1-3.5-1.6l-45.6,41.6l0,0l-0.2,0.2
			l-0.2,0.2l-52.4,47.8v0l-0.2,0.2l-47.2,43.1c0.5,1.1,1.1,2.2,1.7,3.2L1066.6,176.2L1066.6,176.2z"/>
		<path class="st12" d="M1102,208.1l0.2-0.2l52.4-47.8l0.2-0.2l0.2-0.2l49.6-45.3c-0.8-0.9-1.5-1.8-2.3-2.7l-49.9,45.6l-0.2,0.2
			l-0.2,0.2l-52.4,47.8l-0.2,0.2l-0.2,0.2l-51.4,46.9c1,0.7,2,1.4,3,2.1l51.1-46.6L1102,208.1z"/>
		<path class="st12" d="M1093.2,200.1l0.2-0.2l52.4-47.8l0.2-0.2l0.2-0.2l50.3-45.9c-0.7-0.6-1.3-1.3-2-1.9
			c-0.2-0.2-0.4-0.3-0.6-0.5l-50.4,46l-0.2,0.2l-0.2,0.2l-52.4,47.8l-0.2,0.2l-0.2,0.2l-51.8,47.3c0.2,0.2,0.4,0.4,0.6,0.5
			c0.7,0.6,1.4,1.2,2.1,1.8l51.8-47.3L1093.2,200.1z"/>
		<path class="st12" d="M1075.6,184l0.2-0.2l52.4-47.8l0.2-0.2l0.2-0.2l48.8-44.6c-1.1-0.6-2.2-1.3-3.2-1.9l-48.2,44l-0.2,0.2
			l-0.2,0.2l-52.4,47.8l-0.2,0.2l-0.2,0.2l-49.7,45.3c0.7,1,1.3,2,2,3l50.3-45.9L1075.6,184z"/>
		<path class="st12" d="M1146,248.2l0.2-0.2l52.4-47.8l0.2-0.2l0.2-0.2l27.7-25.3c0-1.6,0-3.1-0.1-4.7l-30.2,27.6l-0.2,0.2l-0.2,0.2
			l-52.4,47.8l-0.2,0.2l-31.9,29.1c1.7,0.1,3.4,0.1,5.2,0.1l29.2-26.6L1146,248.2z"/>
		<path class="st12" d="M1128.4,232.2l0.2-0.2l52.4-47.8l0.2-0.2l0.2-0.2l40.9-37.3c-0.4-1.2-0.8-2.4-1.3-3.7l-42.3,38.6l-0.2,0.2
			l-0.2,0.2l-52.4,47.8l-0.2,0.2l-0.2,0.2l-43.7,39.9c1.3,0.4,2.7,0.8,4,1.2l42.4-38.6L1128.4,232.2z"/>
		<path class="st12" d="M1110.8,216.1l0.2-0.2l52.4-47.8l0.2-0.2l0.2-0.2l47.9-43.7c-0.6-1-1.3-2-2-3l-48.5,44.2l-0.2,0.2l-0.2,0.2
			l-52.4,47.8l-0.2,0.2l-0.2,0.2l-50,45.6c1.1,0.6,2.2,1.3,3.3,1.8l49.3-45L1110.8,216.1z"/>
	</g>
	<g style="opacity:0.5;clip-path:url(#SVGID_00000050631716726082040660000018118082431773549207_);">
		<path class="st1" d="M1828.1,524.3l-56.3,55.1l-0.2,0.2l-0.2,0.2l-23.8,23.3c2.2-0.3,4.4-0.6,6.6-0.9l20.3-19.8l0.2-0.2l56.1-54.9
			l0.2-0.2l18.7-18.3c0.4-2.2,0.7-4.3,1-6.5l-22.3,21.8L1828.1,524.3z"/>
		<path class="st1" d="M1837.7,533.3l-0.2,0.2l-0.2,0.2l-56.1,54.9l-0.2,0.2l-9.1,8.9c3.1-1,6.2-2.2,9.3-3.6l2.5-2.4l0.2-0.2
			l0.2-0.2l56.3-55.1l0.2-0.2l0.9-0.9c1.3-3,2.6-6,3.6-9.1L1837.7,533.3L1837.7,533.3z"/>
		<path class="st1" d="M1650.6,407.4c-3.4,3.3-6.5,6.8-9.4,10.5l20.1-19.7C1657.6,401,1654,404.1,1650.6,407.4z"/>
		<path class="st1" d="M1652.2,462.4l56.1-54.9l0.2-0.2l33.9-33.2c-1.8-0.1-3.6-0.2-5.4-0.3l-31.2,30.5l-0.2,0.2l-56.3,55.1
			l-0.2,0.2l-0.2,0.2l-32.8,32.1c0.1,1.8,0.1,3.5,0.3,5.3l35.5-34.8L1652.2,462.4z"/>
		<path class="st1" d="M1633.4,443.9l56.1-54.9l0.2-0.2l10.6-10.4c-2.9,0.8-5.8,1.8-8.6,2.9l-4.7,4.6l-0.2,0.2l-56.3,55.1l-0.2,0.2
			l-0.2,0.2l-6.2,6.1c-1.1,2.8-2.1,5.6-2.9,8.4l12.2-11.9L1633.4,443.9z"/>
		<path class="st1" d="M1671,480.8l56.1-54.9l0.2-0.2l0.2-0.2l46-45c-1.4-0.5-2.8-0.9-4.2-1.4l-44.6,43.6l-0.2,0.2l-0.2,0.2
			l-56.1,54.9l-0.2,0.2l-0.2,0.2l-46.2,45.2c0.4,1.4,0.9,2.8,1.4,4.1l47.8-46.8L1671,480.8z"/>
		<path class="st1" d="M1755.8,563.7L1755.8,563.7l56.1-54.9l0.2-0.2l38-37.2c-0.2-1.6-0.5-3.2-0.8-4.7l-39.8,38.9l-0.2,0.2
			l-56.5,55.3l-0.2,0.2v0l-41.3,40.5c1.6,0.3,3.2,0.6,4.8,0.8l39.5-38.7L1755.8,563.7z"/>
		<path class="st1" d="M1737,545.3l56.1-54.9l0,0l0.2-0.2l48.4-47.3c-0.6-1.3-1.2-2.5-1.8-3.8l-49.2,48.2v0l-0.2,0.2l-56.5,55.3
			l-0.2,0.2l-50.8,49.7c1.3,0.6,2.6,1.2,3.9,1.7l49.9-48.9L1737,545.3z"/>
		<path class="st1" d="M1661.4,471.8l0.2-0.2l56.3-55.1l0.2-0.2l40.8-39.9c-1.6-0.3-3.1-0.6-4.7-0.9l-38.9,38.1l0,0l-0.2,0.2
			l-0.2,0.2l-56.1,54.9l-0.2,0.2l-40.7,39.8c0.3,1.5,0.6,3.1,0.9,4.6l42.4-41.4L1661.4,471.8z"/>
		<path class="st1" d="M1642.6,453.3l0.2-0.2l56.1-54.9l0.2-0.2l0.2-0.2l24.2-23.7c-2.1,0.2-4.3,0.4-6.4,0.7l-20.7,20.2l-0.2,0.2
			l-0.2,0.2l-56.1,54.9l-0.2,0.2l-22.4,22c-0.3,2.1-0.5,4.1-0.7,6.2l25.8-25.2L1642.6,453.3z"/>
		<path class="st1" d="M1699.1,508.6l56.5-55.3l0.2-0.2v0l53.6-52.5c-1-0.8-2.1-1.7-3.1-2.5l-53.5,52.4l-0.2,0.2l0,0l-56.1,54.9
			l-0.2,0.2l-55.1,53.9c0.8,1,1.7,2,2.5,3.1l55.2-54L1699.1,508.6z"/>
		<path class="st1" d="M1680.1,490.4l0.2-0.2l56.5-55.3l0.2-0.2l49.8-48.7c-1.3-0.6-2.5-1.2-3.8-1.8l-48.8,47.7l0,0l-0.2,0.2
			l-0.2,0.2l-56.1,54.9v0l-0.2,0.2l-50.6,49.5c0.6,1.3,1.2,2.5,1.9,3.7L1680.1,490.4L1680.1,490.4z"/>
		<path class="st1" d="M1717.9,527l0.2-0.2l56.1-54.9l0.2-0.2l0.2-0.2l53.1-52c-0.8-1-1.6-2.1-2.5-3.1l-53.5,52.3l-0.2,0.2l-0.2,0.2
			l-56.1,54.9l-0.2,0.2l-0.2,0.2l-55.1,53.9c1,0.8,2.1,1.6,3.2,2.4l54.7-53.5L1717.9,527z"/>
		<path class="st1" d="M1708.5,517.8l0.2-0.2l56.1-54.9l0.2-0.2l0.2-0.2l53.9-52.7c-0.7-0.7-1.4-1.5-2.1-2.2
			c-0.2-0.2-0.4-0.4-0.6-0.6l-53.9,52.8l-0.2,0.2l-0.2,0.2l-56.1,54.9l-0.2,0.2l-0.2,0.2l-55.5,54.3c0.2,0.2,0.4,0.4,0.6,0.6
			c0.7,0.7,1.5,1.4,2.3,2.1l55.5-54.3L1708.5,517.8z"/>
		<path class="st1" d="M1689.7,499.4l0.2-0.2l56.1-54.9l0.2-0.2l0.2-0.2l52.3-51.2c-1.1-0.7-2.3-1.4-3.5-2.1l-51.6,50.5l-0.2,0.2
			l-0.2,0.2l-56.1,54.9l-0.2,0.2l-0.2,0.2l-53.2,52.1c0.7,1.1,1.4,2.3,2.2,3.4l53.9-52.7L1689.7,499.4z"/>
		<path class="st1" d="M1765,573.1l0.2-0.2l56.1-54.9l0.2-0.2l0.2-0.2l29.7-29.1c0-1.8,0-3.6-0.1-5.4l-32.4,31.7l-0.2,0.2l-0.2,0.2
			l-56.1,54.9l-0.2,0.2l-34.2,33.4c1.8,0.1,3.7,0.1,5.5,0.1l31.3-30.6L1765,573.1z"/>
		<path class="st1" d="M1746.2,554.7l0.2-0.2l56.1-54.9l0.2-0.2l0.2-0.2l43.8-42.8c-0.4-1.4-0.9-2.8-1.4-4.2l-45.2,44.3l-0.2,0.2
			l-0.2,0.2l-56.1,54.9l-0.2,0.2l-0.2,0.2l-46.8,45.8c1.4,0.5,2.9,0.9,4.3,1.3l45.4-44.4L1746.2,554.7z"/>
		<path class="st1" d="M1727.3,536.3l0.2-0.2l56.1-54.9l0.2-0.2l0.2-0.2l51.3-50.2c-0.7-1.2-1.4-2.3-2.2-3.4l-51.9,50.8l-0.2,0.2
			l-0.2,0.2l-56.1,54.9l-0.2,0.2l-0.2,0.2l-53.5,52.3c1.2,0.7,2.3,1.4,3.5,2.1l52.8-51.7L1727.3,536.3z"/>
	</g>
	
		<linearGradient id="SVGID_00000048488852525855712380000015509397634122660250_" gradientUnits="userSpaceOnUse" x1="1361.5747" y1="760.3521" x2="2014.9132" y2="760.3521">
		<stop  offset="0" style="stop-color:#C544AD"/>
		<stop  offset="1" style="stop-color:#275EFF"/>
	</linearGradient>
	
		<path style="opacity:0.4;clip-path:url(#SVGID_00000050631716726082040660000018118082431773549207_);fill:url(#SVGID_00000048488852525855712380000015509397634122660250_);" d="
		M2014.7,1014.8c-6.6,136.9-127.3,233.4-265.6,287.4c-70.7,27.6-179.5,60.6-248.9,11.5c-9-6.3-17.5-13.3-25.7-20.7h224.2V247.3
		h-337.1c22.2-10.4,43.9-21.8,65-33.7c102.5-58,241.3-34.4,307.6,53.9c15.6,20.8,27.8,40.5,37.2,56.1
		c72.3,119.4,68.4,255.8,122.5,381.9C1936.5,804.9,2020,905.5,2014.7,1014.8z"/>
	
		<linearGradient id="SVGID_00000116226919859320011310000000717809838171770813_" gradientUnits="userSpaceOnUse" x1="195.6496" y1="325.9989" x2="1328.8267" y2="325.9989">
		<stop  offset="0" style="stop-color:#582AFF"/>
		<stop  offset="1" style="stop-color:#275EFF;stop-opacity:0"/>
	</linearGradient>
	
		<polygon style="opacity:0.3;clip-path:url(#SVGID_00000050631716726082040660000018118082431773549207_);fill:url(#SVGID_00000116226919859320011310000000717809838171770813_);" points="
		195.6,122.2 195.6,808 1328.8,-156 522.7,-156 	"/>
	
		<linearGradient id="SVGID_00000088127368943249360470000012307492995089194640_" gradientUnits="userSpaceOnUse" x1="883.5161" y1="230.058" x2="1509.4645" y2="230.058">
		<stop  offset="0" style="stop-color:#C544AD"/>
		<stop  offset="1" style="stop-color:#275EFF"/>
	</linearGradient>
	
		<path style="opacity:0.4;clip-path:url(#SVGID_00000050631716726082040660000018118082431773549207_);fill:url(#SVGID_00000088127368943249360470000012307492995089194640_);" d="
		M1426.3,273.9c22.5,19,51.5,38.8,83.2,56.1H883.5c13.5-20.2,29.2-39.8,45.5-59c80.6-95.4,195.9-174.9,337.7-126.1
		C1337.4,169.3,1374.1,230,1426.3,273.9z"/>
	
		<linearGradient id="SVGID_00000161607316870163596640000016260942021237895557_" gradientUnits="userSpaceOnUse" x1="120.8571" y1="562.0992" x2="1925.5027" y2="562.0992">
		<stop  offset="0" style="stop-color:#275EFF;stop-opacity:0"/>
		<stop  offset="1" style="stop-color:#C544AD"/>
	</linearGradient>
	
		<polygon style="opacity:0.2;clip-path:url(#SVGID_00000050631716726082040660000018118082431773549207_);fill:url(#SVGID_00000161607316870163596640000016260942021237895557_);" points="
		627.5,1247 1925.5,142.9 1925.5,-122.8 1731.2,-122.8 120.9,1247 	"/>
	<g style="clip-path:url(#SVGID_00000050631716726082040660000018118082431773549207_);">
		<path class="st17" d="M1329.8,827c1.9-1.6,5-1.6,6.9,0c1.9,1.6,1.9,4.3,0,5.9c-1.9,1.6-5,1.6-6.9,0
			C1327.9,831.2,1327.9,828.6,1329.8,827z"/>
		<path class="st17" d="M1302.1,803.4c1.9-1.6,5-1.6,6.9,0c1.9,1.6,1.9,4.3,0,5.9c-1.9,1.6-5,1.6-6.9,0
			C1300.2,807.7,1300.2,805,1302.1,803.4z"/>
		<path class="st17" d="M1274.4,779.8c1.9-1.6,5-1.6,6.9,0c1.9,1.6,1.9,4.3,0,5.9c-1.9,1.6-5,1.6-6.9,0
			C1272.5,784.1,1272.5,781.4,1274.4,779.8z"/>
		<path class="st17" d="M1246.7,756.2c1.9-1.6,5-1.6,6.9,0c1.9,1.6,1.9,4.3,0,5.9c-1.9,1.6-5,1.6-6.9,0
			C1244.8,760.5,1244.8,757.9,1246.7,756.2z"/>
		<path class="st17" d="M1219,732.7c1.9-1.6,5-1.6,6.9,0c1.9,1.6,1.9,4.3,0,5.9c-1.9,1.6-5,1.6-6.9,0
			C1217.1,736.9,1217.1,734.3,1219,732.7z"/>
		<path class="st17" d="M1330.4,779.3c1.9-1.6,5-1.6,6.9,0c1.9,1.6,1.9,4.3,0,5.9c-1.9,1.6-5,1.6-6.9,0
			C1328.5,783.6,1328.5,781,1330.4,779.3z"/>
		<path class="st17" d="M1302.7,755.8c1.9-1.6,5-1.6,6.9,0c1.9,1.6,1.9,4.3,0,5.9c-1.9,1.6-5,1.6-6.9,0
			C1300.8,760,1300.8,757.4,1302.7,755.8z"/>
		<path class="st17" d="M1275,732.2c1.9-1.6,5-1.6,6.9,0c1.9,1.6,1.9,4.3,0,5.9c-1.9,1.6-5,1.6-6.9,0
			C1273.1,736.5,1273.1,733.8,1275,732.2z"/>
		<path class="st17" d="M1247.3,708.6c1.9-1.6,5-1.6,6.9,0c1.9,1.6,1.9,4.3,0,5.9c-1.9,1.6-5,1.6-6.9,0
			C1245.4,712.9,1245.4,710.2,1247.3,708.6z"/>
		<path class="st17" d="M1331,731.7c1.9-1.6,5-1.6,6.9,0c1.9,1.6,1.9,4.3,0,5.9c-1.9,1.6-5,1.6-6.9,0
			C1329.1,736,1329.1,733.3,1331,731.7z"/>
		<path class="st17" d="M1303.3,708.1c1.9-1.6,5-1.6,6.9,0c1.9,1.6,1.9,4.3,0,5.9c-1.9,1.6-5,1.6-6.9,0
			C1301.4,712.4,1301.4,709.8,1303.3,708.1z"/>
		<path class="st17" d="M1275.6,684.6c1.9-1.6,5-1.6,6.9,0c1.9,1.6,1.9,4.3,0,5.9c-1.9,1.6-5,1.6-6.9,0
			C1273.6,688.8,1273.6,686.2,1275.6,684.6z"/>
		<path class="st17" d="M1331.5,684.1c1.9-1.6,5-1.6,6.9,0c1.9,1.6,1.9,4.3,0,5.9c-1.9,1.6-5,1.6-6.9,0
			C1329.6,688.4,1329.6,685.7,1331.5,684.1z"/>
		<path class="st17" d="M1303.8,660.5c1.9-1.6,5-1.6,6.9,0c1.9,1.6,1.9,4.3,0,5.9c-1.9,1.6-5,1.6-6.9,0
			C1301.9,664.8,1301.9,662.1,1303.8,660.5z"/>
		<path class="st17" d="M1332.1,636.5c1.9-1.6,5-1.6,6.9,0c1.9,1.6,1.9,4.3,0,5.9c-1.9,1.6-5,1.6-6.9,0
			C1330.2,640.7,1330.2,638.1,1332.1,636.5z"/>
	</g>
	<g style="clip-path:url(#SVGID_00000050631716726082040660000018118082431773549207_);">
		<polygon class="st18" points="1214.6,485.6 953.8,707.4 998.8,707.4 1259.6,485.6 		"/>
		<polygon class="st18" points="1266.3,600.4 1051.5,783.2 1088.6,783.2 1303.5,600.4 		"/>
		<polygon class="st19" points="1157.3,637 1005.4,766.2 1031.6,766.2 1183.5,637 		"/>
	</g>
	<g style="clip-path:url(#SVGID_00000050631716726082040660000018118082431773549207_);">
		<path class="st20" d="M620.3,261.6c0,2.3-2.2,4.2-4.9,4.2c-2.7,0-4.9-1.9-4.9-4.2c0-2.3,2.2-4.2,4.9-4.2
			C618.1,257.4,620.3,259.3,620.3,261.6z"/>
		<path class="st20" d="M659.4,261.6c0,2.3-2.2,4.2-4.9,4.2c-2.7,0-4.9-1.9-4.9-4.2c0-2.3,2.2-4.2,4.9-4.2
			C657.3,257.4,659.4,259.3,659.4,261.6z"/>
		<path class="st20" d="M698.6,261.6c0,2.3-2.2,4.2-4.9,4.2c-2.7,0-4.9-1.9-4.9-4.2c0-2.3,2.2-4.2,4.9-4.2
			C696.4,257.4,698.6,259.3,698.6,261.6z"/>
		<path class="st20" d="M737.8,261.6c0,2.3-2.2,4.2-4.9,4.2c-2.7,0-4.9-1.9-4.9-4.2c0-2.3,2.2-4.2,4.9-4.2
			C735.6,257.4,737.8,259.3,737.8,261.6z"/>
		<path class="st20" d="M777,261.6c0,2.3-2.2,4.2-4.9,4.2c-2.7,0-4.9-1.9-4.9-4.2c0-2.3,2.2-4.2,4.9-4.2
			C774.8,257.4,777,259.3,777,261.6z"/>
		<path class="st20" d="M659.4,295.6c0,2.3-2.2,4.2-4.9,4.2c-2.7,0-4.9-1.9-4.9-4.2c0-2.3,2.2-4.2,4.9-4.2
			C657.3,291.4,659.4,293.3,659.4,295.6z"/>
		<path class="st20" d="M698.6,295.6c0,2.3-2.2,4.2-4.9,4.2c-2.7,0-4.9-1.9-4.9-4.2c0-2.3,2.2-4.2,4.9-4.2
			C696.4,291.4,698.6,293.3,698.6,295.6z"/>
		<path class="st20" d="M737.8,295.6c0,2.3-2.2,4.2-4.9,4.2c-2.7,0-4.9-1.9-4.9-4.2c0-2.3,2.2-4.2,4.9-4.2
			C735.6,291.4,737.8,293.3,737.8,295.6z"/>
		<path class="st20" d="M777,295.6c0,2.3-2.2,4.2-4.9,4.2c-2.7,0-4.9-1.9-4.9-4.2c0-2.3,2.2-4.2,4.9-4.2
			C774.8,291.4,777,293.3,777,295.6z"/>
		<path class="st20" d="M698.6,329.6c0,2.3-2.2,4.2-4.9,4.2c-2.7,0-4.9-1.9-4.9-4.2c0-2.3,2.2-4.2,4.9-4.2
			C696.4,325.4,698.6,327.3,698.6,329.6z"/>
		<path class="st20" d="M737.8,329.6c0,2.3-2.2,4.2-4.9,4.2c-2.7,0-4.9-1.9-4.9-4.2c0-2.3,2.2-4.2,4.9-4.2
			C735.6,325.4,737.8,327.3,737.8,329.6z"/>
		<path class="st20" d="M777,329.6c0,2.3-2.2,4.2-4.9,4.2c-2.7,0-4.9-1.9-4.9-4.2c0-2.3,2.2-4.2,4.9-4.2
			C774.8,325.4,777,327.3,777,329.6z"/>
		<path class="st20" d="M737.8,363.6c0,2.3-2.2,4.2-4.9,4.2c-2.7,0-4.9-1.9-4.9-4.2c0-2.3,2.2-4.2,4.9-4.2
			C735.6,359.5,737.8,361.3,737.8,363.6z"/>
		<path class="st20" d="M777,363.6c0,2.3-2.2,4.2-4.9,4.2c-2.7,0-4.9-1.9-4.9-4.2c0-2.3,2.2-4.2,4.9-4.2
			C774.8,359.5,777,361.3,777,363.6z"/>
		<path class="st20" d="M777,397.7c0,2.3-2.2,4.2-4.9,4.2c-2.7,0-4.9-1.9-4.9-4.2c0-2.3,2.2-4.2,4.9-4.2
			C774.8,393.5,777,395.3,777,397.7z"/>
	</g>
	<polygon style="opacity:0.2;clip-path:url(#SVGID_00000050631716726082040660000018118082431773549207_);fill:#F2F2F2;" points="
		535.5,102.6 274.7,324.4 319.8,324.4 580.6,102.6 	"/>
	<polygon style="opacity:0.2;clip-path:url(#SVGID_00000050631716726082040660000018118082431773549207_);fill:#F2F2F2;" points="
		643.5,246.8 428.7,429.5 465.8,429.5 680.6,246.8 	"/>
	<polygon style="opacity:0.4;clip-path:url(#SVGID_00000050631716726082040660000018118082431773549207_);fill:#F2F2F2;" points="
		511.1,318.2 359.2,447.4 385.5,447.4 537.4,318.2 	"/>
	<polygon style="opacity:0.2;clip-path:url(#SVGID_00000050631716726082040660000018118082431773549207_);fill:#F2D6FF;" points="
		1934,724.1 1719.2,906.9 1756.3,906.9 1971.1,724.1 	"/>
	<polygon style="opacity:0.4;clip-path:url(#SVGID_00000050631716726082040660000018118082431773549207_);fill:#F2D6FF;" points="
		1782,815.5 1630.1,944.7 1656.3,944.7 1808.3,815.5 	"/>
	<g style="opacity:0.5;clip-path:url(#SVGID_00000050631716726082040660000018118082431773549207_);">
		<path class="st12" d="M1376.6,1066.1l-48.3,43.6l-0.2,0.2l-0.2,0.2l-20.5,18.5c1.9-0.2,3.8-0.4,5.7-0.7l17.4-15.7l0.2-0.2
			l48.1-43.4l0.2-0.2l16-14.5c0.3-1.7,0.6-3.4,0.8-5.1l-19.1,17.2L1376.6,1066.1z"/>
		<path class="st12" d="M1384.9,1073.2l-0.2,0.2l-0.2,0.2l-48.1,43.4l-0.2,0.2l-7.8,7.1c2.7-0.8,5.4-1.8,8-2.8l2.1-1.9l0.2-0.2
			l0.2-0.2l48.3-43.6l0.2-0.2l0.8-0.7c1.2-2.4,2.2-4.8,3.1-7.2L1384.9,1073.2L1384.9,1073.2z"/>
		<path class="st12" d="M1224.3,973.6c-2.9,2.6-5.6,5.4-8.1,8.3l17.3-15.6C1230.4,968.6,1227.3,971,1224.3,973.6z"/>
		<path class="st12" d="M1225.7,1017.1l48.1-43.4l0.2-0.2l29.1-26.3c-1.5-0.1-3.1-0.2-4.6-0.2l-26.8,24.1l-0.2,0.2l-48.3,43.6
			l-0.2,0.2l-0.2,0.2l-28.1,25.4c0,1.4,0.1,2.8,0.2,4.2l30.5-27.5L1225.7,1017.1z"/>
		<path class="st12" d="M1209.6,1002.5l48.1-43.4l0.2-0.2l9.1-8.2c-2.5,0.7-4.9,1.4-7.4,2.3l-4,3.6l-0.2,0.2l-48.3,43.6l-0.2,0.2
			l-0.2,0.2l-5.3,4.8c-0.9,2.2-1.8,4.4-2.5,6.7l10.5-9.4L1209.6,1002.5z"/>
		<path class="st12" d="M1241.9,1031.7l48.1-43.4l0.2-0.2l0.2-0.2l39.5-35.6c-1.2-0.4-2.4-0.7-3.6-1.1l-38.3,34.5l-0.2,0.2l-0.2,0.2
			l-48.1,43.4l-0.2,0.2l-0.2,0.2l-39.6,35.7c0.4,1.1,0.8,2.2,1.2,3.3l41-37L1241.9,1031.7z"/>
		<path class="st12" d="M1314.6,1097.2L1314.6,1097.2l48.1-43.4l0.2-0.2l32.6-29.4c-0.2-1.2-0.4-2.5-0.7-3.7l-34.1,30.8l-0.2,0.2
			l-48.5,43.7l-0.2,0.2v0l-35.5,32c1.4,0.2,2.8,0.4,4.1,0.6l33.9-30.6L1314.6,1097.2z"/>
		<path class="st12" d="M1298.4,1082.7l48.1-43.4l0,0l0.2-0.2l41.5-37.4c-0.5-1-1-2-1.5-3l-42.2,38.1v0l-0.2,0.2l-48.5,43.7
			l-0.2,0.2l-43.6,39.3c1.1,0.5,2.2,0.9,3.3,1.4l42.9-38.6L1298.4,1082.7z"/>
		<path class="st12" d="M1233.6,1024.5l0.2-0.2l48.3-43.6l0.2-0.2l35-31.6c-1.3-0.3-2.7-0.5-4.1-0.7l-33.4,30.1l0,0l-0.2,0.2
			l-0.2,0.2l-48.1,43.4l-0.2,0.2l-34.9,31.5c0.2,1.2,0.5,2.4,0.8,3.7l36.3-32.8L1233.6,1024.5z"/>
		<path class="st12" d="M1217.5,1010l0.2-0.2l48.1-43.4l0.2-0.2l0.2-0.2l20.8-18.7c-1.8,0.1-3.6,0.3-5.5,0.6l-17.7,16l-0.2,0.2
			l-0.2,0.2l-48.1,43.4l-0.2,0.2l-19.3,17.4c-0.3,1.6-0.5,3.3-0.6,4.9l22.1-20L1217.5,1010z"/>
		<path class="st12" d="M1266,1053.7l48.5-43.7l0.2-0.2v0l46-41.5c-0.9-0.7-1.8-1.3-2.7-2l-45.9,41.4l-0.2,0.2l0,0l-48.1,43.4
			l-0.2,0.2l-47.3,42.6c0.7,0.8,1.4,1.6,2.2,2.4l47.4-42.7L1266,1053.7z"/>
		<path class="st12" d="M1249.6,1039.3l0.2-0.2l48.5-43.7l0.2-0.2l42.7-38.5c-1.1-0.5-2.2-1-3.3-1.4L1296,993l0,0l-0.2,0.2l-0.2,0.2
			l-48.1,43.4v0l-0.2,0.2L1204,1076c0.5,1,1,2,1.6,2.9L1249.6,1039.3L1249.6,1039.3z"/>
		<path class="st12" d="M1282.1,1068.2l0.2-0.2l48.1-43.4l0.2-0.2l0.2-0.2l45.6-41.1c-0.7-0.8-1.4-1.7-2.1-2.5l-45.9,41.4l-0.2,0.2
			l-0.2,0.2l-48.1,43.4l-0.2,0.2l-0.2,0.2l-47.2,42.6c0.9,0.7,1.8,1.3,2.7,1.9l46.9-42.3L1282.1,1068.2z"/>
		<path class="st12" d="M1274,1061l0.2-0.2l48.1-43.4l0.2-0.2l0.2-0.2l46.2-41.7c-0.6-0.6-1.2-1.2-1.8-1.7c-0.2-0.2-0.4-0.3-0.6-0.5
			l-46.3,41.7l-0.2,0.2l-0.2,0.2l-48.1,43.4l-0.2,0.2l-0.2,0.2l-47.6,43c0.2,0.2,0.3,0.3,0.5,0.5c0.6,0.6,1.3,1.1,1.9,1.7l47.6-42.9
			L1274,1061z"/>
		<path class="st12" d="M1257.9,1046.4l0.2-0.2l48.1-43.4l0.2-0.2l0.2-0.2l44.9-40.5c-1-0.6-2-1.1-3-1.7l-44.3,40l-0.2,0.2l-0.2,0.2
			l-48.1,43.4l-0.2,0.2l-0.2,0.2l-45.7,41.2c0.6,0.9,1.2,1.8,1.9,2.7l46.2-41.7L1257.9,1046.4z"/>
		<path class="st12" d="M1322.5,1104.7l0.2-0.2l48.1-43.4l0.2-0.2l0.2-0.2l25.5-23c0-1.4,0-2.8-0.1-4.3l-27.8,25.1l-0.2,0.2
			l-0.2,0.2l-48.1,43.4l-0.2,0.2l-29.3,26.4c1.6,0.1,3.2,0.1,4.7,0.1l26.8-24.2L1322.5,1104.7z"/>
		<path class="st12" d="M1306.4,1090.1l0.2-0.2l48.1-43.4l0.2-0.2l0.2-0.2l37.6-33.9c-0.4-1.1-0.8-2.2-1.2-3.3l-38.8,35l-0.2,0.2
			l-0.2,0.2l-48.1,43.4l-0.2,0.2l-0.2,0.2l-40.2,36.2c1.2,0.4,2.4,0.7,3.7,1.1l38.9-35.1L1306.4,1090.1z"/>
		<path class="st12" d="M1290.2,1075.5l0.2-0.2l48.1-43.4l0.2-0.2l0.2-0.2l44-39.7c-0.6-0.9-1.2-1.8-1.9-2.7l-44.6,40.2l-0.2,0.2
			l-0.2,0.2l-48.1,43.4l-0.2,0.2l-0.2,0.2l-45.9,41.4c1,0.6,2,1.1,3,1.7l45.3-40.9L1290.2,1075.5z"/>
	</g>
	
		<linearGradient id="SVGID_00000052791007303111946010000017056933296067671435_" gradientUnits="userSpaceOnUse" x1="1266.7222" y1="687.5937" x2="2209.5347" y2="-221.224" gradientTransform="matrix(0.572 0.8203 -0.8203 0.572 789.2345 -640.2496)">
		<stop  offset="0" style="stop-color:#C544AD"/>
		<stop  offset="1" style="stop-color:#275EFF"/>
	</linearGradient>
	
		<path style="clip-path:url(#SVGID_00000050631716726082040660000018118082431773549207_);fill:url(#SVGID_00000052791007303111946010000017056933296067671435_);" d="
		M1592.7,605.3c-36.2-4-76.6-15-113.8-31c-11.7-5-23.5-10.6-36.1-17c-12.8-6.5-25.2-13.9-37.2-20.9c-25.1-14.9-51.1-30.2-83-39.3
		c-94.5-26.9-179.1,0-242.3,26.5l-3.8,1.6c-6.2,2.6-12.5,5.2-18.6,7.9c-15.2,6.7-32.6,14.9-47.1,26.9c-7.1,5.9-13.2,12.6-17.9,20.1
		c-2.7,4.4-4.9,9.1-6.4,14c-1.8,5.8-3.2,11-1.1,16.9c2.3,6.5,4.8,12.9,7.6,19.2c5.8,13,12.8,25.6,20.8,37.7
		c5.6,8.5,11.6,16.7,18.2,24.7c15.5,18.9,33.1,35.5,51.2,47.6c62,41.4,136.6,58.9,208.8,75.9c42.1,9.9,85.7,20.2,126.7,35.1
		c75,27.2,125.5,55.8,163.9,92.7c35.7,34.4,63.9,80.3,83.9,136.6c3.2,9,6.4,18.2,9.6,27.6c22.5,64.9,50.6,123.6,81.4,169.7
		c26.8,40.1,70.7,64.1,117.4,64.2c48.3,0.1,88-31.3,113.6-54.9c54.2-49.9,107.1-105.1,106.2-182.1c-0.5-44.6-19.6-88.2-38.2-130.4
		c-6.8-15.5-13.9-31.5-19.7-47.1c-10.4-27.6-17.9-55.9-25.2-83.3c-11.5-43.5-23.5-88.5-47-130.2c-5.7-10-11.9-20.8-19.6-32.2
		c-29.1-43.2-85.5-69.7-150.9-70.7c-17.1-0.3-34.2-0.2-52.3-0.1C1694.5,611.1,1645.4,611.3,1592.7,605.3z M1794.2,612.8
		c64.6,1,120.4,27.1,149.1,69.8c7.7,11.4,13.9,22.1,19.6,32.1c23.4,41.5,35.3,86.4,46.8,129.9c7.3,27.5,14.8,55.9,25.2,83.5
		c5.9,15.6,12.9,31.6,19.8,47.1c18.5,42,37.6,85.5,38.1,129.7c0.9,76.4-49.5,129.1-105.7,180.8c-25.4,23.4-64.6,54.4-112.1,54.3
		c-46,0-89.2-23.7-115.6-63.3c-30.7-46-58.8-104.6-81.2-169.4c-3.2-9.3-6.4-18.5-9.6-27.6c-20.1-56.5-48.5-102.7-84.4-137.2
		c-38.6-37.1-89.3-65.8-164.6-93.2c-41.2-14.9-84.8-25.2-127-35.1c-71.9-16.9-146.3-34.4-208-75.6c-22.7-15.2-41.4-34.7-57.1-55.2
		c-16.8-22-30.4-45.9-39.3-71c-1.9-5.5-1.8-9.7-0.4-15.3c1.3-5.1,3.4-10.1,6.1-14.8c4.6-7.9,10.9-14.9,18.3-21.1
		c14.3-11.8,31.5-19.9,46.6-26.6c6.1-2.7,12.4-5.4,18.6-7.9l3.8-1.6c62.8-26.3,147-53.1,240.7-26.4c31.6,9,57.4,24.3,82.4,39.1
		c12,7.1,24.4,14.5,37.3,21c12.6,6.4,24.5,12,36.2,17.1c37.4,16.1,78.1,27.2,114.5,31.2c52.8,6,102,5.8,149.6,5.6
		C1760.1,612.6,1777.2,612.5,1794.2,612.8z"/>
	
		<linearGradient id="SVGID_00000132057400137774508770000000784205523765360058_" gradientUnits="userSpaceOnUse" x1="1264.0563" y1="684.082" x2="2206.5571" y2="-224.4352" gradientTransform="matrix(0.572 0.8203 -0.8203 0.572 789.2345 -640.2496)">
		<stop  offset="0" style="stop-color:#C544AD"/>
		<stop  offset="1" style="stop-color:#275EFF"/>
	</linearGradient>
	
		<path style="clip-path:url(#SVGID_00000050631716726082040660000018118082431773549207_);fill:url(#SVGID_00000132057400137774508770000000784205523765360058_);" d="
		M1466.5,572.9c-12.5-5.7-24.6-12.1-36.3-18.3c-24.4-12.9-49.7-26.2-79.8-34.3c-39-10.5-78.9-13.2-121.9-8.3
		c-32.9,3.8-67.5,12-108.8,26l-4.5,1.5c-5.8,2-11.6,3.9-17.3,5.9c-15.7,5.6-32.3,11.9-46.5,22.1c-7.1,5.1-13.4,11.2-18.1,18
		c-6.8,9.8-11.7,20.4-7,31.6c5.5,13.1,11.8,25.9,19.4,38.3c6.6,10.7,13.9,21,22,30.9c15.3,18.6,32.7,35,50.8,47.3
		c59.2,39.8,130.5,57.8,199.5,75.2c36.8,9.3,74.9,18.9,111,31.7c53.4,18.9,114.1,44,159.9,86.1c35,32.1,62.7,76,82.6,130.2
		c3.5,9.4,6.8,19.1,9.4,26.4c17.8,51,39.9,114.4,75.8,164.2c39.7,55,84.7,67,115.5,67.4c37.5,0.4,74.2-18.2,112.2-57
		c46.1-47.2,91-99.2,88.7-171.4c-1.3-41.4-18.7-82-35.6-121.2c-5.9-13.7-12-28-17.2-41.8c-9.2-24.4-16.2-49.4-23.1-73.6
		c-11.5-40.7-23.3-82.8-45.5-121.8c-5-8.7-11-19-18-29.5c-36.5-54.4-106.4-67.7-134.7-70.8c-29.5-3.3-59.1-4.7-90.4-6.3
		c-31.6-1.6-64.3-3.2-98.9-6.8c-35.1-3.6-73.6-13.1-108.3-26.8C1490.3,583.5,1478.9,578.6,1466.5,572.9z M1609.3,616.3
		c34.6,3.6,67.4,5.3,99.1,6.8c31.3,1.5,60.8,3,90.2,6.3c28,3.1,97.1,16.1,133.1,69.9c7,10.4,13,20.7,18,29.4
		c22.1,38.8,33.9,80.8,45.3,121.4c6.8,24.2,13.9,49.3,23.1,73.8c5.2,13.9,11.3,28.1,17.3,41.9c16.8,39.1,34.2,79.5,35.4,120.6
		c2.3,71.6-42.3,123.3-88.2,170.2c-37.5,38.3-73.7,56.8-110.5,56.4c-54.8-0.6-92.1-36.5-113.7-66.5
		c-35.7-49.6-57.8-112.9-75.6-163.7c-2.6-7.4-5.9-17-9.4-26.5c-19.9-54.5-47.9-98.6-83.1-130.9c-46.1-42.4-107.1-67.5-160.6-86.5
		c-36.3-12.9-74.4-22.5-111.2-31.8c-68.8-17.3-139.9-35.3-198.8-74.9c-23.2-15.7-42.3-35.7-58.2-56.9c-7.8-10.4-14.8-21.3-21-32.5
		c-3-5.6-5.9-11.2-8.5-16.9c-2.5-5.6-6.7-11.5-5.9-17.6c0.7-6,2.9-11.9,6-17.3c4.8-8.4,11.9-15.8,20.3-21.8c0.1,0,0.1-0.1,0.2-0.1
		c14-10.1,30.4-16.3,46-21.9c5.7-2,11.5-4,17.3-5.9l4.5-1.5c64.8-21.8,142.6-41,229.3-17.7c29.8,8,55,21.3,79.3,34.1
		c11.8,6.2,23.9,12.6,36.4,18.4c12.5,5.7,23.9,10.6,34.9,14.9C1535.3,603.2,1574,612.7,1609.3,616.3z"/>
	
		<linearGradient id="SVGID_00000111911067845065652670000008852241593589559741_" gradientUnits="userSpaceOnUse" x1="1261.3473" y1="680.6698" x2="2203.5925" y2="-227.6009" gradientTransform="matrix(0.572 0.8203 -0.8203 0.572 789.2345 -640.2496)">
		<stop  offset="0" style="stop-color:#C544AD"/>
		<stop  offset="1" style="stop-color:#275EFF"/>
	</linearGradient>
	
		<path style="clip-path:url(#SVGID_00000050631716726082040660000018118082431773549207_);fill:url(#SVGID_00000111911067845065652670000008852241593589559741_);" d="
		M1378.2,543.5c-80.7-20.3-156.1-6.9-219.1,8.9l-5.8,1.5c-5.2,1.3-10.4,2.6-15.5,3.9c-16.2,4.3-32,8.8-46,17.4
		c-8.5,5.2-15.8,11.8-21,19.5c-3,4.5-5.7,9.2-6.8,14.3c-1.3,5.8,1.4,10.4,3.9,15.7c6.1,13,13.5,25.6,21.9,37.7
		c4.1,5.9,8.5,11.7,13.1,17.3c15.2,18.5,32.6,34.9,50.7,47.3c56.8,38.7,125.5,57.2,192,75.2c30.9,8.4,62.9,17,93.6,27.6
		c52.1,18,111.4,40.5,155.9,79.5c34.2,30,61.6,71.7,81.2,123.9c2.8,7.4,5.8,15.7,9.2,25.3l2.9,8.4c18.1,51.7,36.9,105.2,67.2,150.2
		c40.6,60.2,88.6,70.1,113.6,70.6c48.1,1,86.7-31.6,110.7-59.1c39.1-44.9,74.7-95.5,71.1-160.8c-2.1-38.4-17.8-76-33.1-112.5
		c-5-11.9-10.1-24.2-14.6-36.1c-7.9-21-14.4-42.4-20.6-63.2c-11.5-38.1-23.3-77.5-44.3-114c-4.5-7.9-10-17.3-16.4-26.9
		c-28.7-43-80.3-62.3-118.5-70.9c-42.1-9.5-84.1-12.8-128.6-16.4c-15.6-1.2-31.8-2.5-48.4-4.1c-34.8-3.2-70.3-11-102.8-22.5
		c-10.2-3.6-21.2-7.8-33.4-12.7c-12.1-4.9-24-10.4-35.5-15.7C1431,561.9,1406.5,550.6,1378.2,543.5z M1489.3,590.2
		c12.3,5,23.2,9.2,33.5,12.8c32.7,11.5,68.4,19.4,103.4,22.6c16.7,1.6,32.8,2.9,48.5,4.1c44.4,3.5,86.3,6.9,128.2,16.3
		c37.8,8.5,88.9,27.6,117.2,70.1c6.4,9.5,11.9,18.9,16.4,26.8c20.8,36.4,32.7,75.7,44.1,113.7c6.3,20.8,12.7,42.3,20.7,63.3
		c4.5,12,9.7,24.3,14.6,36.2c15.2,36.3,30.9,73.8,33,111.9c3.6,64.8-31.9,115-70.7,159.6c-23.7,27.2-61.8,59.4-108.9,58.4
		c-24.6-0.5-71.8-10.3-111.8-69.7c-30.2-44.8-48.9-98.1-67-149.8l-2.9-8.4c-3.4-9.6-6.4-17.9-9.2-25.4
		c-19.8-52.5-47.3-94.4-81.7-124.6c-44.8-39.3-104.4-61.9-156.6-80c-30.7-10.6-62.8-19.3-93.7-27.7
		c-66.2-17.9-134.7-36.5-191.3-74.9c-23.2-15.9-42.5-36-58.4-57.3c-6.7-9.1-12.9-18.5-18.3-28.1c-2.7-4.8-5.3-9.7-7.6-14.6
		c-2.1-4.3-5.4-8.7-4.7-13.6c0.6-4.4,2.5-8.9,4.7-13c5-9,13-16.6,22.5-22.4c13.8-8.4,29.3-12.9,45.4-17.1c5.1-1.3,10.3-2.6,15.5-3.9
		l5.8-1.5c62.8-15.7,137.7-29.1,217.9-8.9c28.1,7.1,52.5,18.3,76.1,29.2C1465.2,579.7,1477.1,585.2,1489.3,590.2z"/>
	
		<linearGradient id="SVGID_00000155136691199197908650000005580964051909967019_" gradientUnits="userSpaceOnUse" x1="1258.7542" y1="677.2211" x2="2200.5581" y2="-230.6243" gradientTransform="matrix(0.572 0.8203 -0.8203 0.572 789.2345 -640.2496)">
		<stop  offset="0" style="stop-color:#C544AD"/>
		<stop  offset="1" style="stop-color:#275EFF"/>
	</linearGradient>
	
		<path style="clip-path:url(#SVGID_00000050631716726082040660000018118082431773549207_);fill:url(#SVGID_00000155136691199197908650000005580964051909967019_);" d="
		M1192.1,567.9c-4.8,0.8-9.6,1.5-14.3,2.3c-16.7,2.8-31.6,5.7-45.5,12.6c-8.2,4.1-15.5,9.6-20.8,16.3c-4.2,5.3-10.6,15.1-7.4,21.5
		c8.9,18.3,20.1,35.8,33.5,52c15.2,18.6,32.8,35.1,51.2,47.9c55.3,38.1,122.6,57.6,187.6,76.5c24,7,48.9,14.2,72.9,22.3
		c58.9,19.8,111,39,151.9,73c34,28.2,60.1,66.7,79.9,117.6c2.9,7.4,5.8,15.3,8.9,24.2c2.5,7.1,5,14.2,7.5,21.3
		c15.7,44.9,31.9,91.4,57,131.6c39.1,62.4,86.8,73.1,111.7,73.8c18.4,0.6,65.9-4.3,109.2-61.3c27.8-36.5,58.9-86.5,53.5-150.2
		c-3-35.6-17.2-70.7-30.9-104.6c-3.9-9.7-8-19.8-11.7-29.6c-6.4-17.1-12.1-34.5-17.6-51.4c-11.7-35.9-23.7-73.1-43.7-107.7
		c-4.1-7.1-9.1-15.5-14.8-24.2c-19.7-29.8-53.2-53-102.3-71c-50.3-18.5-98-22.4-153.2-27l-11.6-1c-34.8-2.8-67.5-9-97.3-18.2
		c-9.6-3-19.8-6.3-32.1-10.6c-11.8-4.1-23.4-8.6-34.6-13c-23-9-46.8-18.2-73.3-24.4c-73.9-17.2-143.4-10.1-207.5,0.1L1192.1,567.9z
		 M1405.5,568.5c26.3,6.1,50,15.4,73,24.3c11.3,4.4,22.9,8.9,34.7,13c12.3,4.3,22.6,7.7,32.1,10.7c30,9.3,62.9,15.5,97.8,18.3
		l11.6,1c55,4.6,102.5,8.5,152.5,26.8c48.6,17.9,81.8,40.8,101.3,70.2c5.8,8.7,10.7,17.1,14.8,24.1c19.8,34.4,31.9,71.5,43.5,107.3
		c5.5,16.9,11.2,34.3,17.6,51.5c3.7,9.8,7.8,19.9,11.7,29.6c13.7,33.8,27.8,68.7,30.8,104.1c5.4,63.1-25.6,112.8-53.2,149
		c-42.8,56.2-89.3,61-107.4,60.4c-24.4-0.8-71.2-11.2-109.9-72.9c-25.1-40-41.2-86.4-56.9-131.2c-2.5-7.1-5-14.2-7.5-21.3
		c-3.2-8.9-6.1-16.9-9-24.2c-19.9-51.2-46.2-89.9-80.4-118.3c-41.2-34.2-93.5-53.5-152.6-73.3c-24.1-8.1-49-15.3-73-22.3
		c-64.9-18.8-131.9-38.3-186.9-76.2c-23.4-16.2-43-36.4-59-58.1c-5.4-7.3-10.4-14.7-15-22.4c-2.3-3.8-4.4-7.7-6.5-11.6
		c-2.1-4-5-7.6-3.8-12.2c1.1-4.1,2.8-8,5.2-11.7c5.2-7.9,13.2-14.2,22.3-18.8c13.6-6.8,28.3-9.6,44.8-12.4c4.7-0.8,9.5-1.5,14.3-2.3
		l6.4-1C1262.7,558.5,1331.9,551.4,1405.5,568.5z"/>
	
		<linearGradient id="SVGID_00000134946766164491034880000012428200190807008439_" gradientUnits="userSpaceOnUse" x1="1256.2051" y1="673.767" x2="2197.3906" y2="-233.4825" gradientTransform="matrix(0.572 0.8203 -0.8203 0.572 789.2345 -640.2496)">
		<stop  offset="0" style="stop-color:#C544AD"/>
		<stop  offset="1" style="stop-color:#275EFF"/>
	</linearGradient>
	
		<path style="clip-path:url(#SVGID_00000050631716726082040660000018118082431773549207_);fill:url(#SVGID_00000134946766164491034880000012428200190807008439_);" d="
		M1142.9,622.2c0,0.1,0,0.2,0.1,0.3c0.3,1.1,0.9,2.2,1.5,3.2c8,13.4,16.5,26.4,26.6,38.7c15.5,19,33.7,36.1,52.8,49.5
		c55.8,39,124.3,60.2,190.6,80.6c14.8,4.6,30.1,9.3,45,14.1l4.9,1.6c50.7,16.4,103.1,33.4,143.1,64.8c33.3,26.1,59,62.5,78.5,111.3
		c2.9,7.1,5.7,14.7,8.7,23.1c3.9,10.9,7.7,22,11.4,32.8c13.2,38.7,26.8,78.8,47.5,114.4c16.1,27.8,51.8,74.7,109.8,77
		c47.9,1.9,87.1-31.5,107.8-63.4c30-46.2,41.7-91.8,36-139.5c-4-33.6-16.9-66.7-29.4-98.8c-2.7-7-5.4-14-8.1-20.9
		c-4.5-12.1-8.8-24.3-13-36.2c-12.3-34.9-25-71.1-44.6-104.7c-3.4-5.8-8-13.6-13.3-21.5c-21.6-32.9-55.7-54.4-86.1-71.1
		c-51.5-28.2-100.5-31.7-152.4-35.4c-35.9-2.5-65-6.9-91.8-13.9c-11.4-3-22.4-6.1-30.7-8.5c-11.4-3.3-22.8-6.9-33.8-10.3
		c-22.3-7-45.3-14.3-70-19.4c-70.8-14.8-138.2-12.2-195.9-8.6l-7.2,0.4c-4.3,0.3-8.7,0.5-13,0.8c-17.1,1.1-31.2,2.4-44.9,7.8
		c-7.9,3.1-15.1,7.6-20.5,13.3c-2.6,2.7-4.8,5.7-6.4,8.9C1144.6,615.2,1142.4,619.2,1142.9,622.2z M1173.8,592
		c13.4-5.2,27.3-6.5,44.2-7.6c4.3-0.3,8.6-0.6,13-0.8l7.2-0.4c57.5-3.6,124.7-6.1,195.2,8.6c24.6,5.1,47.6,12.4,69.8,19.4
		c11,3.5,22.4,7.1,33.9,10.3c8.3,2.4,19.4,5.5,30.8,8.5c26.9,7.1,56.2,11.5,92.3,14c51.6,3.7,100.4,7.1,151.5,35.1
		c30.2,16.6,64,37.9,85.4,70.5c5.2,7.9,9.8,15.6,13.2,21.4c19.5,33.5,32.2,69.6,44.4,104.4c4.2,11.9,8.5,24.1,13,36.2
		c2.6,6.9,5.3,13.9,8.1,20.9c12.5,32,25.3,65,29.3,98.4c5.7,47.3-6,92.6-35.7,138.4c-20.4,31.4-58.9,64.3-105.8,62.4
		c-56.9-2.3-92.1-48.6-108-76c-20.6-35.5-34.2-75.4-47.3-114.1c-3.7-10.8-7.5-22-11.4-32.8c-3-8.4-5.9-16-8.7-23.1
		c-19.7-49.1-45.5-85.7-79.1-112c-40.3-31.6-92.9-48.7-143.8-65.2l-4.9-1.6c-14.9-4.8-30.2-9.6-45-14.1
		c-66.1-20.4-134.5-41.5-189.9-80.3c-23.6-16.6-43.5-36.9-59.9-58.7c-4.3-5.8-8.4-11.7-12.2-17.7c-1.9-2.9-3.7-5.9-5.4-8.9
		c-2.3-4-3.1-6.3-1.4-10.6c1.3-3.5,3.3-6.8,5.8-9.8C1157.7,600.3,1165.3,595.3,1173.8,592z"/>
	
		<linearGradient id="SVGID_00000088132710923088160160000002370668826528552859_" gradientUnits="userSpaceOnUse" x1="1250.3331" y1="666.632" x2="2190.5952" y2="-239.7271" gradientTransform="matrix(0.572 0.8203 -0.8203 0.572 789.2345 -640.2496)">
		<stop  offset="0" style="stop-color:#C544AD"/>
		<stop  offset="1" style="stop-color:#275EFF"/>
	</linearGradient>
	
		<path style="clip-path:url(#SVGID_00000050631716726082040660000018118082431773549207_);fill:url(#SVGID_00000088132710923088160160000002370668826528552859_);" d="
		M1182.6,626c0.3,1.1,1,2.2,1.7,3.2c5.7,8.7,11.8,17.2,18.5,25.3c16.2,19.8,35.5,38,56.3,52.8c62.4,44.5,141.1,69.1,210.6,90.7
		c5.4,1.7,10.7,3.3,16.1,5c45,13.8,91.5,28.1,127.9,54.8c32.6,24,57.8,58.3,77.2,104.9c2.9,6.9,5.7,14.1,8.5,22
		c5.1,14.1,9.8,28.6,14.4,42.6c10.9,33.2,22.1,67.6,38.8,99c12.3,23.1,47.4,77.2,107.9,80.3c48.1,2.4,88-31.2,106.3-65.5
		c20.2-38,26.4-81.3,18.4-128.9c-5.8-34.6-18.7-68.8-31.1-102l-4.2-11.1c-14.4-38.4-29.3-78.1-51-114.9c-4.3-7.2-8-13.2-11.7-18.9
		c-18.6-28.6-44.6-51.1-69.9-71.1c-44.2-35-86-39.9-140.2-42.9c-28.8-1.6-57-3.5-86.3-9.7c-10-2.1-20-4.3-29.4-6.4
		c-11.1-2.5-22.2-5.1-33-7.6c-21.5-5.1-43.8-10.3-66.8-14.5c-64.5-11.9-128.9-15.2-184.2-17.4c-6.5-0.3-13.1-0.6-19.6-0.8
		c-14-0.5-29.8-1.1-44.4,3c-7.8,2.2-15,5.9-20.7,11c-2.6,2.3-4.9,5-6.7,7.8c-1.6,2.5-4.3,6-3.5,9
		C1182.6,625.9,1182.6,625.9,1182.6,626z M1214.1,599.7c14.2-4,29.1-3.5,43.6-2.9c6.5,0.3,13.1,0.5,19.6,0.8
		c55.2,2.2,119.6,5.5,183.9,17.4c22.9,4.1,45.1,9.4,66.7,14.5c10.8,2.5,21.9,5.2,33,7.6c9.4,2.1,19.4,4.3,29.4,6.4
		c29.5,6.2,57.8,8.1,86.7,9.7c53.8,3,95.2,7.8,138.8,42.4c25.1,19.9,50.9,42.3,69.5,70.7c3.7,5.6,7.3,11.6,11.6,18.8
		c21.6,36.7,36.5,76.3,50.9,114.6l4.2,11.1c12.4,33,25.3,67.2,31.1,101.7c7.9,47.2,1.8,90.2-18.2,127.9
		c-18,33.8-57.2,66.8-104.2,64.4c-59.3-3-93.9-56.4-106-79.2c-16.6-31.3-27.8-65.6-38.7-98.7c-4.6-14-9.3-28.6-14.4-42.7
		c-2.8-7.9-5.6-15.1-8.5-22c-19.5-46.9-44.9-81.5-77.8-105.7c-36.6-26.9-83.3-41.3-128.5-55.2c-5.4-1.7-10.8-3.3-16.1-5
		c-69.3-21.6-147.8-46-209.9-90.4c-24.2-17.3-45.1-38-62.3-60.5c-4.4-5.8-8.4-11.7-12.4-17.6c-0.4-0.6-0.8-1.3-1-2
		c-0.7-2.8,2.3-7.1,3.9-9.5c2-2.8,4.5-5.3,7.3-7.5C1201.2,604.8,1207.5,601.6,1214.1,599.7z"/>
</g>
</svg>
